<svg width="318" height="755" viewBox="0 0 318 755" fill="none" xmlns="http://www.w3.org/2000/svg">
<path fill-rule="evenodd" clip-rule="evenodd" d="M318 0.518555H0V754.443H318V0.518555ZM76.2175 621.027C41.1848 622.545 40.7639 648.573 79.759 657.958C76.4214 694.487 84.0227 714.941 93.759 722.133C91.2378 747.87 108.759 753.958 108.759 723.384C120.385 717.046 128.791 693.617 118.759 657.958C146.285 666.181 154.934 662.932 157.259 641.958C160.36 667.533 168.653 668.378 189.259 657.958C182.493 694.303 191.301 718.167 202.259 726.748C200.986 758.255 218.259 761.458 219.877 726.748C227.246 719.755 231.409 702.284 225.759 672.958C257.491 669.3 262.22 632.143 233.259 619.958C271.154 619.013 279.34 584.224 249.259 575.958C275.247 570.922 286.502 528.971 244.759 519.458C299.804 509.53 268.084 444.046 225.759 444.958C271.154 438.93 254.783 402.094 217.759 406.458C235.526 390.374 239.657 380.212 234.759 359.458C261.029 354.695 270.804 347.286 268.259 314.958C296.436 303.129 304.791 291.917 289.759 253.458C313.895 220.86 313.787 206.367 285.759 188.458C308.744 156.424 302.848 138.828 262.759 129.958C272.01 95.5899 270.802 80.8582 257.373 78.4583C255.67 67.8756 261.349 53.319 266.607 39.8426C273.975 20.9596 280.515 4.1971 264.759 3.4579C251.102 2.81713 243.301 17.1559 229.353 46.4579C222.411 30.0219 203.284 37.1135 185.259 63.4589C175.617 3.32398 152.058 17.9602 126.759 57.4578C123.633 21.9015 98.0848 37.4521 89.3186 59.4581C75.5469 48.6601 67.9321 32.2015 62.2111 19.836C56.2757 7.0071 52.3786 -1.41615 45.759 5.45813C33.3277 21.3483 41.7502 40.39 61.259 77.3119C43.6915 81.6099 42.9545 100.678 42.759 129.958C19.2738 144.149 17.8205 155.674 30.7589 180.958C30.0846 182.443 29.4183 183.906 28.7615 185.349C10.3931 225.693 -0.508585 249.638 30.7589 250.458C12.4816 280.245 19.8228 291.784 42.759 309.458C41.2598 343.711 50.3945 353.733 79.759 359.458C73.8425 379.221 75.7902 388.515 94.759 399.958C42.7186 404.849 28.808 442.187 86.759 464.958C23.7068 455.174 15.2396 507.764 73.7589 513.458C11.9689 516.133 22.951 573.239 66.759 569.458C15.4599 578.145 30.2175 620.848 76.2175 621.027Z" fill="white"/>
<path opacity="0.3" d="M61.259 77.3119C43.6915 81.6099 42.9545 100.678 42.759 129.958C19.2738 144.149 17.8205 155.674 30.7589 180.958C11.2267 223.951 -1.6266 249.609 30.7589 250.458C12.4816 280.245 19.8228 291.783 42.759 309.458C41.2598 343.711 50.3945 353.733 79.759 359.458C73.8425 379.221 75.7902 388.515 94.759 399.958C42.7186 404.849 28.808 442.187 86.759 464.958C23.7068 455.174 15.2396 507.764 73.7589 513.458C11.9689 516.133 22.951 573.239 66.759 569.458C14.1653 578.364 31.0044 623.024 79.759 620.958C41.2543 620.828 39.4909 648.267 79.759 657.958C76.4214 694.487 84.0227 714.941 93.759 722.133M61.259 77.3119C67.4395 75.7998 75.703 76.1158 86.759 78.4583C85.7281 72.2711 86.8671 65.6122 89.3186 59.4581M61.259 77.3119C41.7502 40.39 33.3277 21.3483 45.759 5.45813C58.759 -8.04211 61.259 37.4573 89.3186 59.4581M89.3186 59.4581C98.0848 37.4521 123.633 21.9015 126.759 57.4578C152.058 17.9602 175.617 3.32398 185.259 63.4589C203.284 37.1135 222.411 30.0219 229.353 46.4579M229.353 46.4579C232.424 53.7294 233.109 65.6061 230.259 82.458C242.102 78.9175 251.08 77.3336 257.373 78.4583M229.353 46.4579C243.301 17.1559 251.102 2.81713 264.759 3.4579C291.759 4.72466 253.284 53.0473 257.373 78.4583M257.373 78.4583C270.802 80.8582 272.01 95.5899 262.759 129.958C302.848 138.828 308.744 156.424 285.759 188.458C313.787 206.367 313.895 220.86 289.759 253.458C304.791 291.917 296.436 303.129 268.259 314.958C270.804 347.286 261.029 354.695 234.759 359.458C239.657 380.212 235.526 390.374 217.759 406.458C254.783 402.094 271.154 438.93 225.759 444.958C268.084 444.046 299.804 509.53 244.759 519.458C286.502 528.971 275.247 570.922 249.259 575.958C279.34 584.224 271.154 619.013 233.259 619.958C262.22 632.143 257.491 669.3 225.759 672.958C231.409 702.284 227.246 719.755 219.877 726.748M93.759 722.133C98.5919 725.702 103.951 726.005 108.759 723.384M93.759 722.133C91.2378 747.87 108.759 753.958 108.759 723.384M108.759 723.384C120.385 717.046 128.791 693.617 118.759 657.958C146.285 666.181 154.934 662.932 157.259 641.958C160.36 667.533 168.653 668.378 189.259 657.958C182.493 694.303 191.301 718.167 202.259 726.748M202.259 726.748C208.214 731.411 214.805 731.561 219.877 726.748M202.259 726.748C200.986 758.255 218.259 761.458 219.877 726.748M79.759 224.458C100.975 234.975 121.759 226.458 129.259 202.458C137.333 219.287 155.759 216.958 165.259 197.958C167.826 221.933 184.759 227.958 199.259 202.458C202.376 243.659 221.759 232.958 240.259 220.458C287.431 273.238 275.154 301.116 182.759 343.958C164.014 348.969 152.761 347.612 131.759 339.958C66.5202 310.908 22.9405 297.124 79.759 224.458ZM101.259 253.458C113.259 254.958 115.759 272.458 101.259 273.458C86.259 271.958 87.759 254.458 101.259 253.458ZM213.759 253.458C228.759 254.958 228.759 273.458 213.759 274.958C199.759 273.458 200.259 253.458 213.759 253.458Z" stroke="black" stroke-width="5"/>
</svg>
