<svg width="302" height="755" viewBox="0 0 302 755" fill="none" xmlns="http://www.w3.org/2000/svg">
<path opacity="0.3" d="M53.259 77.3119C35.6915 81.6099 34.9545 100.678 34.759 129.958C11.2738 144.149 9.82053 155.674 22.7589 180.958C3.22665 223.951 -9.6266 249.609 22.7589 250.458C4.48156 280.245 11.8228 291.783 34.759 309.458C33.2598 343.711 42.3945 353.733 71.759 359.458C65.8425 379.221 67.7902 388.515 86.759 399.958C34.7186 404.849 20.808 442.187 78.759 464.958C15.7068 455.174 7.23963 507.764 65.7589 513.458C3.96894 516.133 14.951 573.239 58.759 569.458C6.16534 578.364 23.0044 623.024 71.759 620.958C33.2543 620.828 31.4909 648.267 71.759 657.958C68.4214 694.487 76.0227 714.941 85.759 722.133M53.259 77.3119C59.4395 75.7998 67.703 76.1158 78.759 78.4583C77.7281 72.2711 78.8671 65.6122 81.3186 59.4581M53.259 77.3119C33.7502 40.39 25.3277 21.3483 37.759 5.45813C50.759 -8.04211 53.259 37.4573 81.3186 59.4581M81.3186 59.4581C90.0848 37.4521 115.633 21.9015 118.759 57.4578C144.058 17.9602 167.617 3.32398 177.259 63.4589C195.284 37.1135 214.411 30.0219 221.353 46.4579M221.353 46.4579C224.424 53.7294 225.109 65.6061 222.259 82.458C234.102 78.9175 243.08 77.3336 249.373 78.4583M221.353 46.4579C235.301 17.1559 243.102 2.81713 256.759 3.4579C283.759 4.72466 245.284 53.0473 249.373 78.4583M249.373 78.4583C262.802 80.8582 264.01 95.5899 254.759 129.958C294.848 138.828 300.744 156.424 277.759 188.458C305.787 206.367 305.895 220.86 281.759 253.458C296.791 291.917 288.436 303.129 260.259 314.958C262.804 347.286 253.029 354.695 226.759 359.458C231.657 380.212 227.526 390.374 209.759 406.458C246.783 402.094 263.154 438.93 217.759 444.958C260.084 444.046 291.804 509.53 236.759 519.458C278.502 528.971 267.247 570.922 241.259 575.958C271.34 584.224 263.154 619.013 225.259 619.958C254.22 632.143 249.491 669.3 217.759 672.958C223.409 702.284 219.246 719.755 211.877 726.748M85.759 722.133C90.5919 725.702 95.9508 726.005 100.759 723.384M85.759 722.133C83.2378 747.87 100.759 753.958 100.759 723.384M100.759 723.384C112.385 717.046 120.791 693.617 110.759 657.958C138.285 666.181 146.934 662.932 149.259 641.958C152.36 667.533 160.653 668.378 181.259 657.958C174.493 694.303 183.301 718.167 194.259 726.748M194.259 726.748C200.214 731.411 206.805 731.561 211.877 726.748M194.259 726.748C192.986 758.255 210.259 761.458 211.877 726.748M71.759 224.458C92.975 234.975 113.759 226.458 121.259 202.458C129.333 219.287 147.759 216.958 157.259 197.958C159.826 221.933 176.759 227.958 191.259 202.458C194.376 243.659 213.759 232.958 232.259 220.458C279.431 273.238 267.154 301.116 174.759 343.958C156.014 348.969 144.761 347.612 123.759 339.958C58.5202 310.908 14.9405 297.124 71.759 224.458ZM93.259 253.458C105.259 254.958 107.759 272.458 93.259 273.458C78.259 271.958 79.759 254.458 93.259 253.458ZM205.759 253.458C220.759 254.958 220.759 273.458 205.759 274.958C191.759 273.458 192.259 253.458 205.759 253.458Z" stroke="black" stroke-width="5"/>
</svg>
