<svg width="318" height="774" viewBox="0 0 318 774" fill="none" xmlns="http://www.w3.org/2000/svg">
<path fill-rule="evenodd" clip-rule="evenodd" d="M318 0H0V774H318V0ZM76.2175 631.027C41.1848 632.545 40.7639 658.573 79.759 667.958C76.4214 704.487 84.0227 724.941 93.759 732.133C91.2378 757.87 108.759 763.958 108.759 733.384C120.385 727.046 128.791 703.617 118.759 667.958C146.285 676.181 154.934 672.932 157.259 651.958C160.36 677.533 168.653 678.378 189.259 667.958C182.493 704.303 191.301 728.167 202.259 736.748C200.986 768.255 218.259 771.458 219.877 736.748C227.246 729.755 231.409 712.284 225.759 682.958C257.491 679.3 262.22 642.143 233.259 629.958C271.154 629.013 279.34 594.224 249.259 585.958C275.247 580.922 286.502 538.971 244.759 529.458C299.804 519.53 268.084 454.046 225.759 454.958C271.154 448.93 254.783 412.094 217.759 416.458C235.526 400.374 239.657 390.212 234.759 369.458C261.029 364.695 270.804 357.286 268.259 324.958C296.436 313.129 304.791 301.917 289.759 263.458C313.895 230.86 313.787 216.367 285.759 198.458C308.744 166.424 302.848 148.828 262.759 139.958C272.01 105.59 270.802 90.8582 257.373 88.4583C255.67 77.8756 261.349 63.319 266.607 49.8426C273.975 30.9596 280.515 14.1971 264.759 13.4579C251.102 12.8171 243.301 27.1559 229.353 56.4579C222.411 40.0219 203.284 47.1135 185.259 73.4589C175.617 13.324 152.058 27.9602 126.759 67.4578C123.633 31.9015 98.0848 47.4521 89.3186 69.4581C75.5469 58.6601 67.9321 42.2015 62.2111 29.836C56.2757 17.0071 52.3786 8.58385 45.759 15.4581C33.3277 31.3483 41.7502 50.39 61.259 87.3119C43.6915 91.6099 42.9545 110.678 42.759 139.958C19.2738 154.149 17.8205 165.674 30.7589 190.958C30.0847 192.443 29.4183 193.906 28.7615 195.349C10.3931 235.693 -0.508591 259.638 30.7589 260.458C12.4816 290.245 19.8228 301.784 42.759 319.458C41.2598 353.711 50.3945 363.733 79.759 369.458C73.8425 389.221 75.7902 398.515 94.759 409.958C42.7186 414.849 28.808 452.187 86.759 474.958C23.7068 465.174 15.2396 517.764 73.7589 523.458C11.9689 526.133 22.951 583.239 66.759 579.458C15.4599 588.145 30.2175 630.848 76.2175 631.027Z" fill="white"/>
<path opacity="0.3" d="M61.259 87.3119C43.6915 91.6099 42.9545 110.678 42.759 139.958C19.2738 154.149 17.8205 165.674 30.7589 190.958C11.2267 233.951 -1.6266 259.609 30.7589 260.458C12.4816 290.245 19.8228 301.783 42.759 319.458C41.2598 353.711 50.3945 363.733 79.759 369.458C73.8425 389.221 75.7902 398.515 94.759 409.958C42.7186 414.849 28.808 452.187 86.759 474.958C23.7068 465.174 15.2396 517.764 73.7589 523.458C11.9689 526.133 22.951 583.239 66.759 579.458C14.1653 588.364 31.0044 633.024 79.759 630.958C41.2543 630.828 39.4909 658.267 79.759 667.958C76.4214 704.487 84.0227 724.941 93.759 732.133M61.259 87.3119C67.4395 85.7998 75.703 86.1158 86.759 88.4583C85.7281 82.2711 86.8671 75.6122 89.3186 69.4581M61.259 87.3119C41.7502 50.39 33.3277 31.3483 45.759 15.4581C58.759 1.95789 61.259 47.4573 89.3186 69.4581M89.3186 69.4581C98.0848 47.4521 123.633 31.9015 126.759 67.4578C152.058 27.9602 175.617 13.324 185.259 73.4589C203.284 47.1135 222.411 40.0219 229.353 56.4579M229.353 56.4579C232.424 63.7294 233.109 75.6061 230.259 92.458C242.102 88.9175 251.08 87.3336 257.373 88.4583M229.353 56.4579C243.301 27.1559 251.102 12.8171 264.759 13.4579C291.759 14.7247 253.284 63.0473 257.373 88.4583M257.373 88.4583C270.802 90.8582 272.01 105.59 262.759 139.958C302.848 148.828 308.744 166.424 285.759 198.458C313.787 216.367 313.895 230.86 289.759 263.458C304.791 301.917 296.436 313.129 268.259 324.958C270.804 357.286 261.029 364.695 234.759 369.458C239.657 390.212 235.526 400.374 217.759 416.458C254.783 412.094 271.154 448.93 225.759 454.958C268.084 454.046 299.804 519.53 244.759 529.458C286.502 538.971 275.247 580.922 249.259 585.958C279.34 594.224 271.154 629.013 233.259 629.958C262.22 642.143 257.491 679.3 225.759 682.958C231.409 712.284 227.246 729.755 219.877 736.748M93.759 732.133C98.5919 735.702 103.951 736.005 108.759 733.384M93.759 732.133C91.2378 757.87 108.759 763.958 108.759 733.384M108.759 733.384C120.385 727.046 128.791 703.617 118.759 667.958C146.285 676.181 154.934 672.932 157.259 651.958C160.36 677.533 168.653 678.378 189.259 667.958C182.493 704.303 191.301 728.167 202.259 736.748M202.259 736.748C208.214 741.411 214.805 741.561 219.877 736.748M202.259 736.748C200.986 768.255 218.259 771.458 219.877 736.748M79.759 234.458C100.975 244.975 121.759 236.458 129.259 212.458C137.333 229.287 155.759 226.958 165.259 207.958C167.826 231.933 184.759 237.958 199.259 212.458C202.376 253.659 221.759 242.958 240.259 230.458C287.431 283.238 275.154 311.116 182.759 353.958C164.014 358.969 152.761 357.612 131.759 349.958C66.5202 320.908 22.9405 307.124 79.759 234.458ZM101.259 263.458C113.259 264.958 115.759 282.458 101.259 283.458C86.259 281.958 87.759 264.458 101.259 263.458ZM213.759 263.458C228.759 264.958 228.759 283.458 213.759 284.958C199.759 283.458 200.259 263.458 213.759 263.458Z" stroke="black" stroke-width="5"/>
</svg>
