<svg width="558" height="775" viewBox="0 0 558 775" fill="none" xmlns="http://www.w3.org/2000/svg">
<g clip-path="url(#clip0_6557_1282)">
<path fill-rule="evenodd" clip-rule="evenodd" d="M556.666 0.5H1.03613V774.5H556.666V0.5ZM390.488 104.248L390.477 104.269C403.593 121.112 413.681 140.955 419.801 162.754C423.005 174.182 425.12 186.147 426.013 198.498L426.02 198.497C426.274 202.018 426.429 205.57 426.481 209.15L426.522 209.15C426.535 210.053 426.542 210.958 426.542 211.865C426.542 235.825 421.917 258.574 413.636 279.097C409.82 288.551 407.568 298.921 407.866 309.497C407.893 310.447 407.905 311.399 407.905 312.355C407.905 339.605 397.658 364.677 380.499 384.641C387.146 373.819 390.853 361.769 390.853 349.068C390.853 334.87 386.194 321.494 378.001 309.73C386.039 292.339 390.848 270.453 390.848 246.649C390.848 190.084 363.77 144.23 330.367 144.23C314.73 144.23 300.486 154.285 289.755 170.78C300.486 154.286 314.73 144.233 330.364 144.233C363.768 144.233 390.846 190.09 390.846 246.652C390.846 270.456 386.037 292.342 377.993 309.733C386.187 321.5 390.846 334.873 390.846 349.071C390.846 361.83 387.078 373.924 380.374 384.787L380.499 384.641C380.266 385.021 380.03 385.399 379.789 385.775L379.784 385.764C367.865 404.445 347.13 419.352 321.626 427.439C347.13 419.356 367.868 404.455 379.789 385.775C391.372 410.767 399.894 437.835 404.792 466.13C407.861 483.859 410.005 500.528 411.394 516.154L411.355 516.165C421.275 627.947 392.531 686.34 386.499 697.191C392.545 686.336 421.33 627.969 411.394 516.154C425.375 512.17 439.92 512.101 452.175 520.798L452.149 520.815C461.292 527.294 469.16 538.638 474.571 556.878L474.581 556.871C476.86 564.555 478.702 573.461 480.019 583.738C464.002 593.463 462.379 615.746 462.32 623.552C462.304 625.29 462.367 626.308 462.367 626.308C462.367 626.308 454.374 666.148 406.42 692.706C406.42 692.706 400.075 697.338 394.704 705.411C392.031 703.465 389.739 701.896 388.099 700.805C386.44 699.7 385.448 699.082 385.411 699.058L385.408 699.064C385.408 699.064 430.901 727.275 429.184 749.889C429.109 750.875 428.944 751.85 428.682 752.812C428.434 753.719 428.1 754.615 427.673 755.497C425.735 759.491 422.425 762.259 418.185 764.071C416.984 764.584 415.709 765.021 414.369 765.386C392.912 771.246 354.915 759.012 341.737 753.837C338.896 752.721 336.174 752.684 333.532 753.299C333.066 753.407 332.603 753.536 332.142 753.682C328.523 754.831 325.042 757.084 321.593 759.317C313.452 764.587 305.489 769.742 296.306 759.978V759.953C296.197 759.837 296.087 759.724 295.978 759.61C295.735 759.359 295.492 759.106 295.246 758.817C284.056 752.489 271.215 752.489 260.025 758.817C259.688 759.214 259.352 759.591 259.018 759.949L258.97 759.975V759.978C249.787 769.742 241.823 764.587 233.682 759.316C229.497 756.607 225.265 753.867 220.796 753.108C218.45 752.708 216.039 752.853 213.534 753.837C200.356 759.013 162.347 771.25 140.891 765.384L140.914 765.377C135.399 763.876 130.976 761.182 128.346 756.864C128.08 756.426 127.832 755.972 127.603 755.5C119.249 738.274 146.503 715.576 161.166 704.984C162.628 703.928 163.966 702.991 165.13 702.192C168.036 700.199 169.865 699.061 169.865 699.061C169.865 699.061 132.861 640.797 143.92 516.168L143.881 516.156C145.269 500.53 147.414 483.86 150.483 466.13C155.382 437.831 163.905 410.76 175.49 385.766C179.293 391.726 183.993 397.301 189.458 402.392C183.993 397.3 179.294 391.724 175.492 385.764L175.49 385.766C175.261 385.406 175.034 385.044 174.81 384.681L174.902 384.787C169.635 376.258 166.182 366.968 164.942 357.191C164.605 354.517 164.432 351.808 164.432 349.068C164.432 334.87 169.091 321.497 177.285 309.73C169.241 292.339 164.432 270.453 164.432 246.649C164.432 212.747 174.16 182.691 189.147 164.05C174.159 182.69 164.43 212.747 164.43 246.652C164.43 270.456 169.239 292.342 177.282 309.733C169.089 321.497 164.43 334.873 164.43 349.071C164.43 351.81 164.604 354.519 164.942 357.191C166.171 366.925 169.584 376.182 174.81 384.681C157.631 364.707 147.37 339.623 147.37 312.355C147.37 310.701 147.409 309.056 147.487 307.42C148.013 296.255 146.844 284.989 143.061 274.846C135.828 255.45 131.837 234.178 131.837 211.865C131.837 210.889 131.845 209.916 131.86 208.945L131.903 208.941C131.957 205.513 132.104 202.11 132.344 198.737L132.347 198.737C134.365 170.313 142.853 143.928 156.2 121.421L156.194 121.411C159.226 116.296 162.508 111.381 166.022 106.688L166.014 106.673C180.547 87.2657 199.023 71.654 220.068 61.3669C225.494 58.7154 230.293 54.4674 234.143 49.0131C242.951 36.5354 258.727 19.4711 284.257 8.17557C285.431 7.65554 286.632 8.94957 286.387 10.4734L282.046 37.5241C281.782 39.1719 283.148 40.4477 284.354 39.701C293.53 34.0229 304.81 28.8922 318.473 25.781C319.701 25.4999 320.727 27.0207 320.29 28.478L313.853 49.9111C313.514 51.0479 314.06 52.2785 315.011 52.5445C344.789 60.8376 370.981 79.2203 390.488 104.248ZM166.014 106.673C162.501 111.366 159.217 116.28 156.183 121.395C142.83 143.909 134.318 170.303 132.301 198.735C132.062 202.111 131.914 205.515 131.86 208.945C113.402 210.512 93.2912 199.872 79.1493 178.543C57.5428 145.963 58.0766 100.971 80.3358 78.0502C102.595 55.1326 138.155 62.9663 159.759 95.5469C162.127 99.1159 164.18 102.854 166.014 106.673ZM75.2572 583.734C74.9301 583.536 74.597 583.343 74.2578 583.155C50.2808 569.876 31.632 599.754 18.3115 639.59C10.2245 663.778 19.8134 678.175 28.5967 685.752C36.2421 692.349 43.1935 700.126 48.8833 709.293C78.1069 756.362 115.939 772.279 140.891 765.384C139.515 765.007 138.207 764.556 136.978 764.024C132.79 762.211 129.519 759.457 127.598 755.497C125.859 751.911 125.664 748.087 126.576 744.185C127.826 738.839 131.156 733.346 135.449 728.114C142.873 719.064 153.176 710.792 160.57 705.41C166.001 701.456 169.863 699.061 169.863 699.061C169.863 699.061 132.8 640.835 143.881 516.156C115.087 507.951 83.8969 516.356 75.2572 583.734ZM75.2572 583.734L75.2478 583.808C94.1523 595.329 93.0075 624.325 92.9119 626.217C93.0096 624.351 94.2179 595.245 75.2572 583.734ZM462.32 623.552C462.307 625.294 462.371 626.314 462.371 626.314C462.371 626.314 454.379 666.151 406.425 692.712C406.425 692.712 400.079 697.343 394.71 705.414C399.802 709.122 406.273 714.198 412.232 719.956C423.584 730.919 433.086 744.353 427.68 755.5C426.401 758.135 424.523 760.235 422.175 761.88C419.959 763.435 417.323 764.582 414.375 765.388C439.325 772.296 477.169 756.382 506.4 709.302C512.092 700.135 519.041 692.358 526.686 685.761C535.465 678.178 545.054 663.781 536.967 639.593C523.646 599.757 504.997 569.876 481.02 583.158C480.954 583.194 480.888 583.231 480.823 583.268C480.748 583.31 480.673 583.353 480.599 583.396C480.404 583.508 480.211 583.622 480.019 583.738L480.028 583.805C464.048 593.543 462.392 615.766 462.32 623.552ZM474.581 556.871C489.504 546.659 503.321 534.262 514.329 517.655C532.691 489.954 542.712 450.269 532.488 415.336C525.871 392.729 513.99 378.861 503.518 366.638C496.251 358.157 489.664 350.468 485.985 341.201C471.829 305.546 510.141 283.039 531.289 275.32C553.718 267.13 544.173 223.354 521.613 231.589C449.366 257.969 422.521 330.643 473.445 393.213C475.178 395.342 477.018 397.469 478.889 399.634C492.774 415.691 508.436 433.805 495.789 469.978C487.539 493.577 470.475 509.081 452.175 520.798C461.311 527.281 469.174 538.636 474.581 556.871ZM390.488 104.248C392.021 101.28 393.655 98.355 395.516 95.5499C417.12 62.9663 452.681 55.1326 474.94 78.0533C497.199 100.971 497.73 145.966 476.129 178.546C462.777 198.682 444.101 209.336 426.522 209.15C426.47 205.568 426.315 202.014 426.06 198.492C423.935 169.1 414.866 141.899 400.684 118.923C397.531 113.815 394.126 108.916 390.488 104.248ZM196.057 156.617C204.633 148.72 214.463 144.233 224.911 144.233C247.551 144.233 267.273 165.31 277.638 196.496L277.64 196.493C267.273 165.307 247.551 144.23 224.914 144.23C214.464 144.23 204.633 148.718 196.057 156.617ZM92.9066 626.314C92.9066 626.314 100.899 666.151 148.855 692.712C148.855 692.712 150.993 694.271 153.836 697.156C150.992 694.269 148.855 692.709 148.855 692.709C101.016 666.216 92.9457 626.505 92.9066 626.311V626.314ZM223.546 691.209L223.545 691.216C248.289 708.408 255.976 731.4 258.178 746.958C255.978 731.397 248.294 708.401 223.546 691.209ZM297.025 747.483C299.126 731.917 306.702 708.595 331.73 691.209L331.73 691.213C306.707 708.6 299.127 731.92 297.025 747.483ZM297.619 299.91C297.619 304.085 294.903 307.469 291.553 307.469C288.203 307.469 285.487 304.085 285.487 299.91C285.487 295.736 288.203 292.352 291.553 292.352C294.903 292.352 297.619 295.736 297.619 299.91ZM269.789 299.91C269.789 304.085 267.073 307.469 263.723 307.469C260.373 307.469 257.657 304.085 257.657 299.91C257.657 295.736 260.373 292.352 263.723 292.352C267.073 292.352 269.789 295.736 269.789 299.91Z" fill="white"/>
<path d="M385.742 701.208L383.583 699.833L382.192 702.018L384.393 703.383L385.742 701.208ZM405.124 468.276L407.646 467.84L407.646 467.84L405.124 468.276ZM380.116 387.91L382.438 386.834L380.472 382.592L377.958 386.533L380.116 387.91ZM175.823 387.91L177.981 386.533L175.467 382.592L173.501 386.834L175.823 387.91ZM150.815 468.276L148.293 467.84V467.84L150.815 468.276ZM170.194 701.208L171.543 703.383L173.744 702.018L172.354 699.833L170.194 701.208ZM213.866 755.983L212.93 753.601L212.93 753.601L213.866 755.983ZM260.357 760.963L259.097 758.735L258.7 758.959L258.405 759.307L260.357 760.963ZM295.577 760.963L297.529 759.307L297.234 758.959L296.837 758.735L295.577 760.963ZM428.004 757.643L425.701 756.526L425.701 756.526L428.004 757.643ZM127.932 757.643L125.629 758.76L125.629 758.761L127.932 757.643ZM149.187 694.856L150.696 692.788L150.567 692.694L150.427 692.616L149.187 694.856ZM93.2381 628.458L90.6835 628.296L90.6622 628.632L90.7284 628.961L93.2381 628.458ZM74.5893 585.301L73.3492 587.541L74.5893 585.301ZM18.643 641.737L16.2153 640.925L16.2153 640.925L18.643 641.737ZM28.9282 687.899L30.6005 685.961L30.6002 685.96L28.9282 687.899ZM49.2148 711.439L47.0399 712.789L47.04 712.789L49.2148 711.439ZM141.246 767.524L141.929 769.991L150.912 767.502L141.918 765.054L141.246 767.524ZM170.197 701.208L171.548 703.382L173.743 702.017L172.357 699.835L170.197 701.208ZM144.252 518.314L146.802 518.54L146.988 516.433L144.955 515.853L144.252 518.314ZM75.5793 585.954L73.0402 585.63L72.8296 587.276L74.2472 588.14L75.5793 585.954ZM93.2381 628.461L90.6832 628.303L90.6626 628.637L90.7284 628.964L93.2381 628.461ZM149.187 694.859L150.696 692.791L150.567 692.697L150.427 692.619L149.187 694.859ZM475.271 80.1997L473.435 81.9831L473.435 81.9832L475.271 80.1997ZM395.848 97.6964L397.981 99.1117L397.981 99.1109L395.848 97.6964ZM390.808 106.416L388.534 105.242L387.783 106.697L388.789 107.989L390.808 106.416ZM426.813 211.296L424.253 211.333L424.29 213.827L426.783 213.856L426.813 211.296ZM476.46 180.693L478.594 182.107L478.594 182.107L476.46 180.693ZM166.353 108.835L168.402 110.369L169.333 109.126L168.661 107.727L166.353 108.835ZM160.091 97.6934L157.957 99.108L157.958 99.1083L160.091 97.6934ZM80.6673 80.1967L78.8311 78.4133L78.831 78.4134L80.6673 80.1967ZM79.4808 180.69L81.6143 179.275L81.6141 179.275L79.4808 180.69ZM132.234 211.087L132.453 213.638L134.757 213.44L134.794 211.128L132.234 211.087ZM480.359 585.951L481.692 588.137L483.109 587.273L482.899 585.627L480.359 585.951ZM411.687 518.311L410.984 515.85L408.95 516.43L409.137 518.537L411.687 518.311ZM385.742 701.205L383.581 699.833L382.196 702.014L384.39 703.379L385.742 701.205ZM395.035 707.557L393.529 709.627L395.687 711.197L397.166 708.975L395.035 707.557ZM406.752 694.853L405.512 692.613L405.372 692.691L405.242 692.785L406.752 694.853ZM462.698 628.455L465.208 628.958L465.274 628.631L465.253 628.297L462.698 628.455ZM537.298 641.74L539.726 640.928V640.928L537.298 641.74ZM481.352 585.304L482.592 587.544L482.592 587.544L481.352 585.304ZM462.703 628.461L465.213 628.964L465.279 628.635L465.258 628.299L462.703 628.461ZM406.757 694.859L405.516 692.619L405.377 692.697L405.248 692.791L406.757 694.859ZM395.04 707.563L392.909 706.145L391.55 708.188L393.533 709.633L395.04 707.563ZM428.011 757.646L430.314 758.764L430.315 758.763L428.011 757.646ZM414.7 767.533L414.026 765.064L405.052 767.516L414.017 770L414.7 767.533ZM506.731 711.448L504.557 710.098L504.557 710.098L506.731 711.448ZM527.018 687.908L528.69 689.846L528.691 689.845L527.018 687.908ZM277.972 198.64L275.543 199.447L277.972 206.755L280.401 199.447L277.972 198.64ZM177.616 311.877L179.717 313.339L180.556 312.135L179.94 310.802L177.616 311.877ZM378.332 311.877L376.009 310.803L375.393 312.135L376.232 313.34L378.332 311.877ZM315.342 54.691L314.653 57.1562L314.655 57.1569L315.342 54.691ZM314.185 52.0576L311.733 51.3213L311.732 51.3247L314.185 52.0576ZM320.622 30.6244L323.073 31.3607L323.074 31.3593L320.622 30.6244ZM318.805 27.9275L319.373 30.4234L319.376 30.4227L318.805 27.9275ZM284.685 41.8474L283.339 39.6707L283.338 39.6712L284.685 41.8474ZM282.378 39.6706L284.905 40.0762L284.905 40.0761L282.378 39.6706ZM286.719 12.6199L284.191 12.2134L284.191 12.2143L286.719 12.6199ZM284.588 10.3221L285.624 12.6629L285.625 12.6626L284.588 10.3221ZM234.475 51.1596L236.566 52.6359L236.566 52.6358L234.475 51.1596ZM220.4 63.5134L219.276 61.2136L219.276 61.2136L220.4 63.5134ZM143.393 276.992L145.791 276.098L145.791 276.098L143.393 276.992ZM147.818 309.567L150.375 309.688L150.375 309.687L147.818 309.567ZM175.234 386.934L173.295 388.605L177.412 385.589L175.234 386.934ZM177.614 311.88L179.714 313.343L180.554 312.138L179.937 310.805L177.614 311.88ZM277.969 198.643L275.54 199.45L277.969 206.758L280.398 199.45L277.969 198.643ZM378.325 311.88L376.002 310.805L375.385 312.138L376.224 313.342L378.325 311.88ZM380.705 386.934L378.527 385.589L382.644 388.605L380.705 386.934ZM408.198 311.644L410.757 311.572V311.572L408.198 311.644ZM413.968 281.243L416.341 282.201L416.342 282.201L413.968 281.243ZM386.356 700.177L388.569 701.463L392.695 694.363L385.266 697.861L386.356 700.177ZM354.501 699.639L356.452 697.982L356.452 697.982L354.501 699.639ZM333.285 692.497L334.762 694.588L334.815 694.55L334.867 694.51L333.285 692.497ZM332.433 693.099L333.884 695.208L333.897 695.199L333.91 695.19L332.433 693.099ZM296.638 762.124L294.079 762.188L294.103 763.165L294.773 763.878L296.638 762.124ZM342.068 755.986L341.132 758.369L341.133 758.369L342.068 755.986ZM385.74 701.211L383.567 699.857L382.21 702.034L384.391 703.386L385.74 701.211ZM169.583 700.177L170.673 697.861L163.244 694.363L167.369 701.463L169.583 700.177ZM201.438 699.639L199.486 697.982L199.486 697.982L201.438 699.639ZM222.654 692.497L221.072 694.51L221.124 694.55L221.177 694.588L222.654 692.497ZM223.505 693.099L222.029 695.19L222.042 695.199L222.055 695.208L223.505 693.099ZM259.301 762.124L261.166 763.878L261.836 763.165L261.86 762.188L259.301 762.124ZM213.871 755.986L214.806 758.369L214.806 758.369L213.871 755.986ZM170.199 701.211L171.548 703.386L173.729 702.034L172.371 699.857L170.199 701.211ZM216.362 582.236L213.824 582.568L213.824 582.57L216.362 582.236ZM216.687 584.521L219.217 584.13L219.217 584.127L216.687 584.521ZM223.877 693.362L221.332 693.087L221.168 694.597L222.416 695.464L223.877 693.362ZM259.301 762.121L256.742 762.057L256.631 766.477L260.52 764.372L259.301 762.121ZM259.357 762.091L260.576 764.342L260.944 764.142L261.23 763.836L259.357 762.091ZM296.638 762.1L294.771 763.852L299.363 768.745L299.197 762.036L296.638 762.1ZM332.062 693.359L333.523 695.461L334.771 694.594L334.607 693.083L332.062 693.359ZM339.251 584.518L336.722 584.124L336.721 584.127L339.251 584.518ZM339.576 582.233L342.114 582.568L342.114 582.565L339.576 582.233ZM496.121 472.125L493.705 471.28V471.28L496.121 472.125ZM452.481 522.961L451.101 520.805L447.901 522.853L451.001 525.049L452.481 522.961ZM474.903 559.025L472.449 559.753L473.448 563.122L476.348 561.137L474.903 559.025ZM514.66 519.802L512.527 518.387V518.387L514.66 519.802ZM532.819 417.482L530.362 418.201L530.362 418.201L532.819 417.482ZM486.316 343.348L483.937 344.292L483.937 344.292L486.316 343.348ZM531.621 277.467L532.498 279.872L532.499 279.871L531.621 277.467ZM521.944 233.736L521.066 231.331L521.066 231.331L521.944 233.736ZM473.777 395.36L471.791 396.976L471.792 396.976L473.777 395.36ZM455.71 109.696L457.547 107.913L457.547 107.913L455.71 109.696ZM401.009 121.08L398.898 119.631L397.955 121.005L398.83 122.423L401.009 121.08ZM426.344 200.644L423.791 200.829L423.987 203.538L426.68 203.182L426.344 200.644ZM456.538 179.638L458.671 181.052L458.671 181.052L456.538 179.638ZM156.531 123.568L158.733 124.874L159.523 123.542L158.71 122.224L156.531 123.568ZM155.503 121.872L157.637 120.459L157.636 120.457L155.503 121.872ZM99.401 179.635L97.2675 181.049L97.2676 181.049L99.401 179.635ZM132.678 200.883L132.599 203.442L135.057 203.518L135.232 201.065L132.678 200.883ZM214.504 354.894C213.44 353.963 211.823 354.07 210.891 355.134C209.96 356.198 210.068 357.815 211.131 358.746L214.504 354.894ZM344.807 358.746C345.871 357.815 345.979 356.198 345.047 355.134C344.116 354.07 342.499 353.963 341.435 354.894L344.807 358.746ZM205.449 270.024C205.453 271.438 206.602 272.581 208.015 272.577C209.429 272.573 210.572 271.424 210.568 270.01L205.449 270.024ZM221.055 253.657L221.065 256.217H221.066L221.055 253.657ZM231.624 269.921C231.627 271.334 232.776 272.478 234.19 272.474C235.604 272.471 236.747 271.322 236.744 269.908L231.624 269.921ZM319.195 270.024C319.199 271.438 320.348 272.581 321.762 272.577C323.176 272.573 324.319 271.424 324.315 270.01L319.195 270.024ZM334.801 253.657L334.811 256.217H334.812L334.801 253.657ZM345.37 269.921C345.374 271.334 346.523 272.478 347.936 272.474C349.35 272.471 350.493 271.322 350.49 269.908L345.37 269.921ZM275.41 376.04C275.41 377.454 276.556 378.6 277.969 378.6C279.383 378.6 280.529 377.454 280.529 376.04H275.41ZM280.529 339.759C280.529 338.345 279.383 337.199 277.969 337.199C276.556 337.199 275.41 338.345 275.41 339.759H280.529ZM509.6 589.125C510.312 587.904 509.9 586.337 508.679 585.624C507.458 584.912 505.891 585.324 505.178 586.545L509.6 589.125ZM492.915 607.555C492.203 608.776 492.615 610.343 493.836 611.056C495.057 611.768 496.624 611.356 497.337 610.135L492.915 607.555ZM507.509 628.209C506.553 629.25 506.623 630.87 507.665 631.826C508.706 632.781 510.326 632.712 511.281 631.67L507.509 628.209ZM527.305 614.207C528.261 613.165 528.191 611.546 527.149 610.59C526.108 609.634 524.489 609.704 523.533 610.745L527.305 614.207ZM539.123 644.75C540.253 643.901 540.48 642.296 539.63 641.166C538.781 640.036 537.176 639.809 536.046 640.658L539.123 644.75ZM520.707 652.193C519.577 653.042 519.35 654.647 520.199 655.777C521.049 656.907 522.654 657.134 523.784 656.285L520.707 652.193ZM58.1724 610.135C58.8851 611.356 60.4526 611.768 61.6736 611.056C62.8945 610.343 63.3066 608.775 62.5939 607.554L58.1724 610.135ZM50.4647 586.774C49.752 585.553 48.1845 585.141 46.9635 585.854C45.7426 586.567 45.3305 588.134 46.0432 589.355L50.4647 586.774ZM32.2531 611.048C31.2973 610.006 29.678 609.936 28.6364 610.892C27.5947 611.848 27.5251 613.467 28.4809 614.509L32.2531 611.048ZM44.2278 631.67C45.1836 632.712 46.8029 632.781 47.8446 631.826C48.8862 630.87 48.9558 629.25 48 628.209L44.2278 631.67ZM31.7255 656.284C32.8554 657.134 34.4601 656.907 35.3099 655.777C36.1596 654.647 35.9325 653.043 34.8026 652.193L31.7255 656.284ZM19.8152 640.922C18.6853 640.072 17.0805 640.299 16.2308 641.429C15.3811 642.559 15.6082 644.163 16.738 645.013L19.8152 640.922ZM385.742 701.208C387.902 702.582 387.903 702.581 387.904 702.579C387.904 702.578 387.906 702.576 387.907 702.574C387.91 702.57 387.913 702.565 387.917 702.558C387.925 702.546 387.935 702.529 387.949 702.507C387.976 702.464 388.014 702.403 388.062 702.323C388.159 702.164 388.298 701.933 388.475 701.629C388.829 701.02 389.337 700.12 389.968 698.924C391.231 696.534 392.989 692.965 395.003 688.195C399.033 678.654 404.088 664.31 408.267 644.982C416.629 606.317 421.477 547.752 407.646 467.84L402.601 468.713C416.324 547.996 411.482 605.897 403.264 643.899C399.154 662.904 394.197 676.944 390.287 686.203C388.332 690.833 386.638 694.269 385.442 696.533C384.844 697.665 384.37 698.504 384.05 699.053C383.891 699.328 383.769 699.53 383.69 699.66C383.65 699.724 383.621 699.771 383.603 699.8C383.594 699.815 383.588 699.825 383.585 699.83C383.583 699.833 383.582 699.835 383.582 699.835C383.581 699.835 383.582 699.835 383.582 699.835C383.582 699.834 383.583 699.833 385.742 701.208ZM407.646 467.84C402.709 439.32 394.118 412.033 382.438 386.834L377.793 388.987C389.284 413.777 397.741 440.634 402.601 468.713L407.646 467.84ZM377.958 386.533C360.292 414.221 322.331 433.683 277.969 433.683V438.803C323.658 438.803 363.461 418.772 382.273 389.287L377.958 386.533ZM277.969 433.683C233.607 433.683 195.647 414.224 177.981 386.533L173.665 389.287C192.477 418.775 232.281 438.803 277.969 438.803V433.683ZM173.501 386.834C161.82 412.033 153.23 439.32 148.293 467.84L153.337 468.713C158.198 440.634 166.655 413.777 178.146 388.987L173.501 386.834ZM148.293 467.84C134.46 547.752 139.308 606.317 147.669 644.982C151.849 664.31 156.904 678.654 160.933 688.195C162.947 692.965 164.705 696.534 165.968 698.924C166.599 700.12 167.107 701.02 167.462 701.629C167.639 701.933 167.778 702.164 167.874 702.323C167.923 702.403 167.961 702.464 167.987 702.507C168.001 702.529 168.012 702.546 168.019 702.558C168.023 702.565 168.027 702.57 168.029 702.574C168.03 702.576 168.032 702.578 168.032 702.579C168.034 702.581 168.035 702.582 170.194 701.208C172.354 699.833 172.354 699.834 172.355 699.835C172.355 699.835 172.355 699.835 172.355 699.835C172.354 699.835 172.353 699.833 172.352 699.83C172.348 699.825 172.342 699.815 172.333 699.8C172.315 699.771 172.286 699.724 172.246 699.66C172.167 699.53 172.046 699.328 171.886 699.053C171.566 698.504 171.093 697.665 170.494 696.533C169.298 694.269 167.604 690.833 165.649 686.203C161.739 676.944 156.783 662.904 152.673 643.899C144.455 605.897 139.614 547.997 153.337 468.713L148.293 467.84ZM170.194 701.208C168.845 699.032 168.844 699.033 168.844 699.033C168.843 699.034 168.842 699.034 168.841 699.035C168.839 699.036 168.836 699.038 168.832 699.041C168.824 699.045 168.813 699.052 168.799 699.061C168.771 699.078 168.731 699.104 168.678 699.137C168.572 699.204 168.417 699.302 168.217 699.429C167.818 699.685 167.237 700.06 166.504 700.544C165.039 701.513 162.965 702.919 160.513 704.678C155.617 708.192 149.182 713.139 143.087 718.842C137.017 724.521 131.151 731.071 127.525 737.808C123.903 744.537 122.298 751.897 125.627 758.76L130.233 756.526C127.927 751.771 128.787 746.266 132.033 740.235C135.275 734.212 140.679 728.106 146.584 722.58C152.464 717.079 158.709 712.275 163.498 708.838C165.889 707.122 167.909 705.753 169.327 704.815C170.037 704.346 170.595 703.985 170.974 703.743C171.164 703.622 171.308 703.531 171.404 703.47C171.452 703.44 171.488 703.418 171.511 703.403C171.523 703.396 171.532 703.39 171.537 703.387C171.54 703.385 171.541 703.384 171.542 703.384C171.543 703.383 171.543 703.383 171.543 703.383C171.543 703.383 171.543 703.383 170.194 701.208ZM125.627 758.76C128.932 765.576 135.558 769.097 143.233 770.631C150.903 772.165 160.034 771.815 169.136 770.553C187.369 768.026 206.242 761.728 214.801 758.366L212.93 753.601C204.585 756.878 186.125 763.03 168.434 765.482C159.574 766.71 151.095 766.982 144.237 765.611C137.384 764.241 132.563 761.33 130.233 756.526L125.627 758.76ZM214.801 758.366C218.165 757.045 221.378 757.551 224.84 759.099C228.465 760.719 231.824 763.198 235.767 765.631C239.491 767.93 243.713 770.152 248.303 770.214C253.108 770.279 257.743 767.998 262.308 762.62L258.405 759.307C254.517 763.887 251.227 765.133 248.372 765.095C245.301 765.053 242.127 763.54 238.456 761.275C235.002 759.143 230.965 756.228 226.929 754.424C222.731 752.548 218.019 751.602 212.93 753.601L214.801 758.366ZM261.617 763.191C272.025 757.305 283.909 757.305 294.317 763.191L296.837 758.735C284.865 751.965 271.069 751.965 259.097 758.735L261.617 763.191ZM293.626 762.62C298.191 767.998 302.826 770.279 307.631 770.214C312.22 770.152 316.443 767.93 320.167 765.631C324.11 763.198 327.469 760.719 331.093 759.099C334.556 757.551 337.768 757.045 341.133 758.366L343.004 753.601C337.915 751.602 333.203 752.548 329.005 754.424C324.969 756.228 320.932 759.143 317.478 761.275C313.807 763.54 310.633 765.053 307.562 765.095C304.707 765.133 301.417 763.887 297.529 759.307L293.626 762.62ZM341.133 758.366C349.693 761.728 368.566 768.026 386.798 770.553C395.901 771.815 405.031 772.165 412.701 770.631C420.377 769.097 427.002 765.576 430.307 758.76L425.701 756.526C423.371 761.33 418.55 764.241 411.698 765.611C404.84 766.982 396.36 766.71 387.501 765.482C369.81 763.03 351.35 756.878 343.004 753.601L341.133 758.366ZM430.307 758.76C433.637 751.897 432.032 744.537 428.41 737.809C424.785 731.071 418.919 724.521 412.849 718.842C406.754 713.139 400.319 708.192 395.423 704.678C392.972 702.919 390.897 701.513 389.432 700.544C388.699 700.06 388.119 699.685 387.719 699.429C387.519 699.302 387.365 699.204 387.259 699.137C387.206 699.104 387.165 699.078 387.137 699.061C387.123 699.052 387.112 699.045 387.104 699.041C387.101 699.038 387.098 699.036 387.095 699.035C387.094 699.034 387.093 699.034 387.093 699.033C387.092 699.033 387.091 699.032 385.742 701.208C384.393 703.383 384.393 703.383 384.393 703.383C384.393 703.383 384.393 703.383 384.394 703.384C384.395 703.384 384.397 703.385 384.399 703.387C384.405 703.39 384.413 703.396 384.425 703.403C384.448 703.418 384.484 703.44 384.532 703.47C384.628 703.531 384.773 703.622 384.962 703.743C385.341 703.985 385.9 704.346 386.609 704.815C388.028 705.753 390.047 707.122 392.438 708.838C397.228 712.275 403.472 717.079 409.351 722.58C415.257 728.106 420.661 734.212 423.902 740.235C427.148 746.266 428.008 751.77 425.701 756.526L430.307 758.76ZM130.235 756.526C128.538 753.027 128.556 749.163 129.954 744.966C131.366 740.727 134.15 736.284 137.759 731.884C144.976 723.088 155.071 714.97 162.41 709.63L159.397 705.49C151.95 710.91 141.436 719.332 133.802 728.637C129.986 733.287 126.783 738.285 125.097 743.349C123.396 748.455 123.203 753.758 125.629 758.76L130.235 756.526ZM163.035 706.142C160.22 701.913 157.159 698.595 154.803 696.334C153.623 695.201 152.614 694.328 151.892 693.731C151.531 693.433 151.241 693.204 151.037 693.046C150.935 692.967 150.854 692.906 150.797 692.863C150.768 692.841 150.745 692.824 150.729 692.812C150.72 692.806 150.713 692.801 150.708 692.797C150.705 692.795 150.703 692.793 150.701 692.791C150.7 692.791 150.699 692.79 150.698 692.79C150.698 692.789 150.697 692.789 150.697 692.789C150.697 692.788 150.696 692.788 149.187 694.856C147.678 696.923 147.677 696.923 147.677 696.922C147.677 696.922 147.676 696.922 147.676 696.922C147.676 696.922 147.676 696.922 147.675 696.921C147.675 696.921 147.675 696.921 147.675 696.921C147.676 696.922 147.678 696.924 147.682 696.926C147.69 696.932 147.703 696.942 147.722 696.956C147.76 696.985 147.821 697.031 147.903 697.095C148.067 697.221 148.315 697.417 148.633 697.679C149.268 698.204 150.181 698.993 151.258 700.027C153.418 702.1 156.215 705.135 158.773 708.978L163.035 706.142ZM150.427 692.616C126.891 679.582 113.214 663.324 105.422 650.378C101.523 643.899 99.0935 638.243 97.6439 634.228C96.9192 632.222 96.4398 630.627 96.1443 629.546C95.9965 629.006 95.8947 628.595 95.8312 628.325C95.7995 628.19 95.7773 628.091 95.7637 628.028C95.7569 627.997 95.7523 627.975 95.7497 627.963C95.7484 627.957 95.7476 627.953 95.7473 627.951C95.7472 627.951 95.7472 627.951 95.7473 627.951C95.7473 627.951 95.7475 627.952 95.7475 627.952C95.7477 627.953 95.7479 627.954 93.2381 628.458C90.7284 628.961 90.7286 628.963 90.729 628.964C90.7291 628.965 90.7294 628.967 90.7297 628.968C90.7303 628.971 90.731 628.975 90.7319 628.979C90.7336 628.987 90.7358 628.998 90.7385 629.011C90.7439 629.037 90.7515 629.072 90.7613 629.117C90.7809 629.208 90.8095 629.335 90.848 629.499C90.925 629.825 91.0417 630.296 91.2062 630.897C91.535 632.099 92.0547 633.824 92.8286 635.967C94.3762 640.253 96.9425 646.217 101.036 653.018C109.229 666.631 123.526 683.571 147.947 697.095L150.427 692.616ZM93.2381 628.458C95.7928 628.62 95.7929 628.619 95.7929 628.618C95.793 628.617 95.793 628.616 95.7931 628.615C95.7932 628.613 95.7934 628.61 95.7936 628.607C95.7939 628.601 95.7944 628.593 95.795 628.583C95.7961 628.563 95.7977 628.536 95.7995 628.501C95.8032 628.431 95.808 628.332 95.8133 628.204C95.8238 627.949 95.8359 627.582 95.8435 627.115C95.8589 626.181 95.8563 624.847 95.7867 623.214C95.6478 619.956 95.2402 615.478 94.1592 610.615C92.0169 600.975 87.1071 589.308 75.8295 583.062L73.3492 587.541C82.7294 592.736 87.1439 602.646 89.1616 611.725C90.1606 616.22 90.5419 620.387 90.6718 623.433C90.7366 624.952 90.7385 626.185 90.7247 627.031C90.7177 627.453 90.7069 627.778 90.698 627.994C90.6936 628.101 90.6897 628.181 90.687 628.232C90.6857 628.258 90.6846 628.276 90.684 628.287C90.6837 628.292 90.6835 628.295 90.6834 628.297C90.6834 628.298 90.6833 628.298 90.6833 628.298C90.6834 628.298 90.6834 628.297 90.6834 628.297C90.6834 628.297 90.6835 628.296 93.2381 628.458ZM75.8295 583.062C69.3084 579.451 62.9453 578.689 56.888 580.458C50.9189 582.201 45.5308 586.318 40.6833 591.927C31.0186 603.11 22.8994 620.935 16.2153 640.925L21.0706 642.549C27.7071 622.701 35.5726 605.67 44.5567 595.274C49.0336 590.094 53.6359 586.741 58.3232 585.372C62.9224 584.029 67.8818 584.513 73.3492 587.541L75.8295 583.062ZM16.2153 640.925C12.0183 653.478 12.3515 663.692 15.0271 671.845C17.6928 679.968 22.6126 685.831 27.2562 689.837L30.6002 685.96C26.4605 682.389 22.1942 677.266 19.8914 670.249C17.5984 663.262 17.1807 654.183 21.0707 642.549L16.2153 640.925ZM27.2559 689.837C34.7282 696.284 41.5022 703.867 47.0399 712.789L51.3897 710.089C45.5478 700.677 38.4189 692.707 30.6005 685.961L27.2559 689.837ZM47.04 712.789C76.5452 760.313 115.383 777.344 141.929 769.991L140.562 765.057C117.204 771.527 80.3492 756.734 51.3895 710.089L47.04 712.789ZM141.918 765.054C136.286 763.521 132.295 760.77 130.235 756.526L125.629 758.761C128.544 764.766 134.054 768.219 140.573 769.994L141.918 765.054ZM162.41 709.63C165.088 707.681 167.381 706.114 169.002 705.035C169.812 704.496 170.453 704.08 170.89 703.8C171.108 703.66 171.275 703.554 171.386 703.483C171.442 703.448 171.484 703.422 171.511 703.405C171.525 703.396 171.534 703.39 171.541 703.386C171.544 703.384 171.546 703.383 171.547 703.382C171.548 703.382 171.548 703.382 171.549 703.381C171.549 703.381 171.549 703.381 171.549 703.381C171.549 703.381 171.549 703.381 171.549 703.381C171.548 703.381 171.548 703.382 170.197 701.208C168.845 699.034 168.845 699.034 168.844 699.034C168.844 699.034 168.844 699.034 168.844 699.034C168.844 699.035 168.844 699.035 168.843 699.035C168.842 699.036 168.841 699.036 168.84 699.037C168.838 699.039 168.834 699.041 168.83 699.043C168.821 699.049 168.809 699.057 168.793 699.067C168.76 699.087 168.714 699.116 168.653 699.155C168.531 699.231 168.354 699.344 168.124 699.491C167.666 699.786 167.001 700.217 166.166 700.773C164.496 701.885 162.143 703.493 159.398 705.49L162.41 709.63ZM170.197 701.208C172.357 699.835 172.358 699.836 172.358 699.837C172.358 699.837 172.359 699.838 172.359 699.837C172.358 699.837 172.358 699.836 172.357 699.834C172.354 699.83 172.349 699.823 172.342 699.812C172.329 699.789 172.306 699.753 172.275 699.702C172.213 699.601 172.118 699.443 171.991 699.227C171.738 698.796 171.361 698.137 170.881 697.246C169.921 695.465 168.547 692.76 166.926 689.116C163.684 681.829 159.451 670.782 155.554 655.85C147.76 625.991 141.298 580.563 146.802 518.54L141.702 518.088C136.147 580.694 142.657 626.713 150.6 657.143C154.571 672.356 158.898 683.665 162.249 691.197C163.924 694.963 165.355 697.784 166.375 699.676C166.885 700.622 167.292 701.335 167.576 701.819C167.718 702.06 167.829 702.245 167.906 702.371C167.945 702.435 167.975 702.484 167.997 702.519C168.008 702.536 168.017 702.55 168.023 702.56C168.026 702.565 168.029 702.569 168.031 702.573C168.032 702.574 168.033 702.576 168.034 702.577C168.035 702.579 168.036 702.58 170.197 701.208ZM144.955 515.853C130.132 511.621 114.175 511.526 100.796 521.708C87.5068 531.822 77.3906 551.616 73.0402 585.63L78.1184 586.279C82.3984 552.816 92.2109 534.676 103.897 525.782C115.492 516.957 129.556 516.781 143.549 520.776L144.955 515.853ZM74.2472 588.14C83.1346 593.557 87.3229 603.345 89.2365 612.215C90.1838 616.606 90.5461 620.651 90.6702 623.602C90.7321 625.074 90.7344 626.266 90.7216 627.083C90.7152 627.491 90.7051 627.805 90.6968 628.012C90.6927 628.116 90.689 628.193 90.6865 628.242C90.6852 628.267 90.6843 628.284 90.6837 628.294C90.6834 628.3 90.6832 628.303 90.6831 628.304C90.6831 628.305 90.6831 628.305 90.6831 628.305C90.6831 628.305 90.6831 628.305 90.6831 628.305C90.6832 628.304 90.6832 628.303 93.2381 628.461C95.7931 628.619 95.7931 628.618 95.7932 628.617C95.7932 628.616 95.7933 628.615 95.7933 628.614C95.7935 628.612 95.7936 628.609 95.7938 628.606C95.7941 628.6 95.7946 628.593 95.7951 628.583C95.7962 628.564 95.7977 628.537 95.7994 628.503C95.8028 628.436 95.8074 628.34 95.8123 628.216C95.8221 627.97 95.8335 627.615 95.8405 627.163C95.8547 626.26 95.8517 624.969 95.7852 623.387C95.6524 620.229 95.2649 615.882 94.2409 611.135C92.2116 601.729 87.5705 590.265 76.9114 583.769L74.2472 588.14ZM93.2381 628.461C90.7284 628.964 90.7286 628.966 90.729 628.967C90.7291 628.968 90.7295 628.97 90.7298 628.971C90.7303 628.974 90.731 628.978 90.7319 628.982C90.7336 628.99 90.7358 629.001 90.7385 629.014C90.744 629.04 90.7515 629.076 90.7613 629.121C90.7809 629.211 90.8095 629.338 90.848 629.502C90.925 629.828 91.0417 630.299 91.2062 630.9C91.535 632.102 92.0547 633.827 92.8287 635.97C94.3763 640.255 96.9425 646.219 101.036 653.019C109.229 666.632 123.526 683.573 147.947 697.098L150.427 692.619C126.891 679.584 113.214 663.325 105.422 650.379C101.523 643.901 99.0935 638.245 97.6438 634.231C96.9192 632.224 96.4398 630.629 96.1443 629.549C95.9965 629.009 95.8947 628.598 95.8312 628.328C95.7995 628.193 95.7773 628.094 95.7637 628.031C95.7569 628 95.7523 627.978 95.7497 627.966C95.7484 627.96 95.7476 627.956 95.7473 627.955C95.7472 627.954 95.7472 627.954 95.7472 627.954C95.7473 627.954 95.7475 627.955 95.7475 627.955C95.7477 627.956 95.7479 627.957 93.2381 628.461ZM149.187 694.859C147.678 696.927 147.678 696.926 147.677 696.926C147.677 696.926 147.677 696.926 147.677 696.926C147.676 696.925 147.676 696.925 147.676 696.925C147.676 696.925 147.676 696.925 147.676 696.925C147.677 696.925 147.679 696.927 147.683 696.93C147.69 696.935 147.704 696.945 147.723 696.96C147.761 696.988 147.822 697.035 147.904 697.098C148.068 697.225 148.316 697.42 148.633 697.682C149.269 698.207 150.181 698.995 151.259 700.029C153.418 702.101 156.215 705.135 158.773 708.978L163.035 706.142C160.22 701.913 157.159 698.596 154.803 696.335C153.623 695.203 152.613 694.329 151.891 693.734C151.53 693.436 151.24 693.207 151.036 693.049C150.934 692.97 150.854 692.909 150.796 692.866C150.768 692.844 150.745 692.827 150.728 692.815C150.719 692.808 150.713 692.803 150.707 692.799C150.704 692.797 150.702 692.795 150.7 692.794C150.699 692.793 150.698 692.793 150.698 692.792C150.697 692.792 150.697 692.792 150.697 692.791C150.696 692.791 150.696 692.791 149.187 694.859ZM477.108 78.4164C465.338 66.2966 449.97 62.2841 434.763 65.6341C419.623 68.9695 404.81 79.5475 393.714 96.2818L397.981 99.1109C408.49 83.2617 422.259 73.631 435.865 70.6338C449.404 67.6512 462.946 71.1822 473.435 81.9831L477.108 78.4164ZM393.715 96.281C391.779 99.1984 390.094 102.22 388.534 105.242L393.083 107.59C394.595 104.662 396.185 101.818 397.981 99.1117L393.715 96.281ZM388.789 107.989C410.394 135.732 423.676 171.781 424.253 211.333L429.372 211.259C428.779 170.605 415.125 133.475 392.828 104.843L388.789 107.989ZM426.783 213.856C445.45 214.071 464.879 202.791 478.594 182.107L474.327 179.278C461.318 198.897 443.357 208.927 426.842 208.736L426.783 213.856ZM478.594 182.107C489.69 165.371 495.094 145.47 494.873 126.792C494.653 108.138 488.809 90.4641 477.108 78.4163L473.435 81.9832C483.993 92.8531 489.545 109.136 489.754 126.853C489.963 144.548 484.832 163.434 474.327 179.278L478.594 182.107ZM168.661 107.727C166.784 103.819 164.672 99.9695 162.224 96.2784L157.958 99.1083C160.25 102.565 162.249 106.201 164.046 109.943L168.661 107.727ZM162.224 96.2787C151.129 79.5459 136.316 68.9687 121.175 65.6334C105.969 62.2834 90.6012 66.295 78.8311 78.4133L82.5035 81.9802C92.9926 71.1808 106.535 67.6504 120.074 70.633C133.68 73.6303 147.449 83.2602 157.957 99.108L162.224 96.2787ZM78.831 78.4134C67.1295 90.4626 61.2854 108.136 61.0648 126.791C60.844 145.467 66.2484 165.368 77.3475 182.104L81.6141 179.275C71.1067 163.431 65.9748 144.545 66.184 126.851C66.3935 109.134 71.9459 92.8516 82.5036 81.9801L78.831 78.4134ZM77.3474 182.104C91.8722 204.011 112.815 215.326 132.453 213.638L132.015 208.537C114.714 210.024 95.3951 200.06 81.6143 179.275L77.3474 182.104ZM134.794 211.128C135.397 172.788 147.916 137.729 168.402 110.369L164.304 107.301C143.164 135.535 130.294 171.642 129.675 211.047L134.794 211.128ZM482.899 585.627C478.548 551.613 468.432 531.819 455.143 521.705C441.764 511.523 425.806 511.618 410.984 515.85L412.39 520.772C426.382 516.777 440.446 516.954 452.042 525.779C463.728 534.673 473.54 552.813 477.82 586.276L482.899 585.627ZM409.137 518.537C414.641 580.56 408.179 625.988 400.385 655.847C396.487 670.779 392.254 681.826 389.012 689.113C387.391 692.757 386.018 695.462 385.057 697.243C384.577 698.134 384.2 698.793 383.947 699.224C383.821 699.44 383.725 699.598 383.664 699.699C383.633 699.75 383.61 699.786 383.596 699.809C383.589 699.82 383.585 699.827 383.582 699.831C383.581 699.833 383.58 699.834 383.58 699.834C383.58 699.835 383.58 699.834 383.58 699.834C383.581 699.833 383.581 699.833 385.742 701.205C387.903 702.577 387.904 702.576 387.905 702.574C387.905 702.573 387.907 702.572 387.908 702.57C387.91 702.567 387.912 702.562 387.916 702.557C387.922 702.547 387.931 702.533 387.942 702.516C387.963 702.481 387.994 702.432 388.032 702.368C388.11 702.242 388.221 702.057 388.363 701.816C388.646 701.332 389.054 700.619 389.564 699.673C390.584 697.781 392.015 694.96 393.69 691.194C397.041 683.662 401.368 672.353 405.339 657.14C413.282 626.71 419.792 580.691 414.237 518.085L409.137 518.537ZM385.742 701.205C384.39 703.379 384.39 703.379 384.39 703.378C384.39 703.378 384.39 703.378 384.39 703.378C384.39 703.378 384.39 703.378 384.39 703.378C384.39 703.379 384.391 703.379 384.391 703.379C384.393 703.38 384.395 703.381 384.398 703.383C384.404 703.387 384.414 703.393 384.428 703.402C384.455 703.419 384.497 703.445 384.552 703.48C384.664 703.551 384.831 703.657 385.049 703.797C385.485 704.077 386.127 704.493 386.937 705.032C388.558 706.111 390.851 707.678 393.529 709.627L396.541 705.487C393.796 703.49 391.443 701.882 389.773 700.77C388.938 700.214 388.273 699.783 387.814 699.488C387.585 699.341 387.407 699.228 387.286 699.152C387.225 699.113 387.178 699.084 387.146 699.064C387.13 699.054 387.118 699.046 387.109 699.04C387.105 699.038 387.101 699.036 387.099 699.034C387.097 699.033 387.096 699.033 387.096 699.032C387.095 699.032 387.095 699.032 387.095 699.031C387.094 699.031 387.094 699.031 387.094 699.031C387.094 699.031 387.094 699.031 385.742 701.205ZM397.166 708.975C399.724 705.132 402.521 702.097 404.68 700.024C405.758 698.99 406.671 698.201 407.306 697.676C407.624 697.414 407.872 697.219 408.036 697.092C408.118 697.028 408.178 696.982 408.217 696.953C408.236 696.939 408.249 696.929 408.257 696.923C408.26 696.921 408.263 696.919 408.263 696.918C408.264 696.918 408.264 696.918 408.263 696.918C408.263 696.919 408.263 696.919 408.263 696.919C408.262 696.919 408.262 696.919 408.262 696.919C408.262 696.92 408.261 696.92 406.752 694.853C405.242 692.785 405.242 692.785 405.242 692.786C405.241 692.786 405.241 692.786 405.24 692.787C405.24 692.787 405.239 692.788 405.238 692.789C405.236 692.79 405.234 692.792 405.231 692.794C405.226 692.798 405.219 692.803 405.21 692.809C405.193 692.821 405.17 692.838 405.142 692.86C405.084 692.903 405.004 692.964 404.902 693.043C404.698 693.201 404.408 693.43 404.047 693.728C403.325 694.325 402.315 695.198 401.135 696.331C398.78 698.592 395.718 701.91 392.904 706.139L397.166 708.975ZM407.992 697.092C432.411 683.568 446.708 666.628 454.901 653.014C458.994 646.214 461.56 640.25 463.108 635.964C463.882 633.821 464.401 632.096 464.73 630.894C464.895 630.293 465.011 629.822 465.088 629.496C465.127 629.332 465.155 629.204 465.175 629.114C465.185 629.069 465.192 629.034 465.198 629.008C465.201 628.995 465.203 628.984 465.204 628.976C465.205 628.972 465.206 628.968 465.207 628.965C465.207 628.964 465.207 628.962 465.207 628.961C465.208 628.96 465.208 628.958 462.698 628.455C460.188 627.951 460.189 627.95 460.189 627.949C460.189 627.949 460.189 627.948 460.189 627.948C460.189 627.948 460.189 627.948 460.189 627.948C460.189 627.95 460.188 627.954 460.187 627.96C460.184 627.972 460.179 627.994 460.173 628.025C460.159 628.088 460.137 628.187 460.105 628.322C460.042 628.592 459.94 629.003 459.792 629.543C459.496 630.624 459.017 632.219 458.292 634.225C456.843 638.24 454.414 643.896 450.515 650.375C442.723 663.321 429.047 679.579 405.512 692.613L407.992 697.092ZM462.698 628.455C465.253 628.297 465.253 628.298 465.253 628.299C465.253 628.299 465.253 628.299 465.253 628.299C465.253 628.299 465.253 628.299 465.253 628.298C465.253 628.297 465.253 628.294 465.253 628.289C465.252 628.278 465.251 628.261 465.25 628.236C465.247 628.187 465.244 628.11 465.24 628.007C465.231 627.799 465.221 627.485 465.215 627.077C465.202 626.261 465.204 625.069 465.267 623.597C465.391 620.646 465.753 616.601 466.701 612.21C468.615 603.342 472.804 593.554 481.692 588.137L479.027 583.766C468.368 590.261 463.727 601.725 461.697 611.13C460.672 615.877 460.285 620.223 460.151 623.381C460.085 624.963 460.082 626.254 460.096 627.157C460.103 627.609 460.114 627.964 460.124 628.21C460.129 628.333 460.133 628.43 460.137 628.497C460.139 628.531 460.14 628.557 460.141 628.577C460.142 628.586 460.142 628.594 460.142 628.6C460.143 628.603 460.143 628.606 460.143 628.608C460.143 628.609 460.143 628.61 460.143 628.61C460.143 628.611 460.143 628.612 462.698 628.455ZM539.726 640.928C533.042 620.938 524.923 603.112 515.258 591.929C510.41 586.32 505.022 582.203 499.053 580.46C492.996 578.691 486.633 579.453 480.111 583.065L482.592 587.544C488.06 584.515 493.019 584.031 497.618 585.374C502.305 586.743 506.908 590.096 511.384 595.276C520.369 605.672 528.234 622.704 534.87 642.552L539.726 640.928ZM480.112 583.065C468.834 589.311 463.924 600.978 461.782 610.618C460.701 615.481 460.293 619.959 460.154 623.217C460.085 624.85 460.082 626.184 460.098 627.118C460.105 627.585 460.117 627.952 460.128 628.207C460.133 628.335 460.138 628.434 460.142 628.504C460.143 628.539 460.145 628.566 460.146 628.586C460.147 628.596 460.147 628.604 460.148 628.61C460.148 628.613 460.148 628.616 460.148 628.618C460.148 628.619 460.148 628.62 460.148 628.621C460.148 628.622 460.148 628.623 462.703 628.461C465.258 628.299 465.258 628.3 465.258 628.3C465.258 628.3 465.258 628.301 465.258 628.301C465.258 628.301 465.258 628.301 465.258 628.3C465.258 628.298 465.257 628.295 465.257 628.29C465.256 628.279 465.255 628.261 465.254 628.235C465.251 628.184 465.248 628.104 465.243 627.997C465.234 627.781 465.223 627.456 465.216 627.034C465.203 626.188 465.204 624.956 465.269 623.436C465.399 620.39 465.781 616.223 466.78 611.728C468.797 602.65 473.212 592.739 482.592 587.544L480.112 583.065ZM462.703 628.461C460.193 627.957 460.193 627.956 460.194 627.955C460.194 627.955 460.194 627.954 460.194 627.954C460.194 627.954 460.194 627.954 460.194 627.955C460.194 627.956 460.193 627.96 460.191 627.966C460.189 627.978 460.184 628 460.177 628.031C460.164 628.094 460.142 628.193 460.11 628.328C460.046 628.598 459.945 629.009 459.797 629.549C459.501 630.629 459.022 632.224 458.297 634.231C456.848 638.245 454.419 643.901 450.519 650.379C442.728 663.325 429.051 679.584 405.516 692.619L407.997 697.098C432.416 683.573 446.713 666.632 454.906 653.019C458.999 646.219 461.565 640.255 463.113 635.97C463.886 633.827 464.406 632.102 464.735 630.9C464.899 630.299 465.016 629.828 465.093 629.502C465.132 629.338 465.16 629.211 465.18 629.121C465.19 629.076 465.197 629.04 465.203 629.014C465.205 629.001 465.208 628.99 465.209 628.982C465.21 628.978 465.211 628.974 465.211 628.971C465.212 628.97 465.212 628.968 465.212 628.967C465.212 628.966 465.213 628.964 462.703 628.461ZM406.757 694.859C405.248 692.791 405.247 692.791 405.247 692.792C405.247 692.792 405.246 692.792 405.246 692.792C405.245 692.793 405.244 692.794 405.243 692.794C405.241 692.796 405.239 692.797 405.236 692.799C405.231 692.803 405.224 692.808 405.215 692.815C405.199 692.827 405.176 692.844 405.147 692.866C405.09 692.909 405.009 692.97 404.907 693.049C404.703 693.207 404.413 693.436 404.052 693.734C403.329 694.33 402.32 695.204 401.139 696.337C398.783 698.598 395.722 701.916 392.909 706.145L397.171 708.981C399.728 705.138 402.524 702.103 404.684 700.03C405.762 698.996 406.675 698.207 407.31 697.683C407.628 697.42 407.876 697.225 408.04 697.098C408.122 697.034 408.183 696.988 408.221 696.959C408.24 696.945 408.254 696.935 408.261 696.93C408.265 696.927 408.267 696.925 408.268 696.925C408.268 696.924 408.268 696.924 408.268 696.925C408.268 696.925 408.267 696.925 408.267 696.925C408.267 696.925 408.266 696.926 408.266 696.926C408.266 696.926 408.266 696.926 406.757 694.859ZM393.533 709.633C400.872 714.975 410.967 723.093 418.183 731.889C421.793 736.289 424.576 740.732 425.988 744.971C427.387 749.168 427.405 753.031 425.708 756.529L430.315 758.763C432.74 753.761 432.546 748.459 430.846 743.353C429.159 738.29 425.957 733.293 422.141 728.642C414.507 719.338 403.994 710.915 396.546 705.494L393.533 709.633ZM425.708 756.529C423.649 760.773 419.657 763.525 414.026 765.064L415.375 770.002C421.891 768.221 427.4 764.769 430.314 758.764L425.708 756.529ZM414.017 770C440.561 777.353 479.401 760.322 508.906 712.798L504.557 710.098C475.597 756.743 438.74 771.536 415.384 765.066L414.017 770ZM508.906 712.799C514.446 703.876 521.218 696.293 528.69 689.846L525.345 685.97C517.527 692.716 510.401 700.686 504.557 710.098L508.906 712.799ZM528.691 689.845C533.332 685.836 538.25 679.972 540.915 671.848C543.59 663.695 543.923 653.481 539.726 640.928L534.87 642.552C538.76 654.186 538.343 663.265 536.05 670.253C533.748 677.271 529.482 682.396 525.345 685.971L528.691 689.845ZM393.739 248.796C393.739 220.136 386.885 194.065 375.669 175.073C364.488 156.138 348.673 143.817 330.698 143.817V148.937C346.127 148.937 360.553 159.543 371.261 177.676C381.935 195.751 388.62 220.89 388.62 248.796H393.739ZM330.698 143.817C306.339 143.817 286.01 166.338 275.543 197.833L280.401 199.447C290.664 168.568 309.778 148.937 330.698 148.937V143.817ZM280.401 197.832C269.931 166.338 249.602 143.817 225.245 143.817V148.937C246.163 148.937 265.277 168.568 275.543 199.447L280.401 197.832ZM225.245 143.817C207.271 143.817 191.456 156.138 180.274 175.074C169.059 194.067 162.204 220.137 162.204 248.796H167.324C167.324 220.892 174.008 195.753 184.682 177.677C195.391 159.543 209.816 148.937 225.245 148.937V143.817ZM162.204 248.796C162.204 272.928 167.077 295.188 175.293 312.951L179.94 310.802C172.069 293.784 167.324 272.27 167.324 248.796H162.204ZM175.516 310.414C167.058 322.56 162.204 336.436 162.204 351.215H167.324C167.324 337.597 171.787 324.727 179.717 313.339L175.516 310.414ZM162.204 351.215C162.204 375.679 175.413 397.634 196.385 413.386C217.356 429.136 246.211 438.803 277.974 438.803V433.683C247.213 433.683 219.463 424.315 199.46 409.292C179.458 394.269 167.324 373.71 167.324 351.215H162.204ZM277.974 438.803C309.737 438.803 338.592 429.136 359.563 413.386C380.535 397.634 393.744 375.679 393.744 351.215H388.625C388.625 373.71 376.491 394.269 356.489 409.292C336.486 424.315 308.735 433.683 277.974 433.683V438.803ZM393.744 351.215C393.744 336.436 388.891 322.557 380.433 310.414L376.232 313.34C384.161 324.724 388.625 337.597 388.625 351.215H393.744ZM380.656 312.951C388.866 295.187 393.739 272.928 393.739 248.796H388.62C388.62 272.27 383.875 293.784 376.009 310.803L380.656 312.951ZM429.433 214.011C429.433 136.061 381.328 70.4107 316.029 52.2251L314.655 57.1569C377.481 74.6539 424.314 138.08 424.314 214.011H429.433ZM316.032 52.2259C316.45 52.3429 316.598 52.6144 316.622 52.6683C316.65 52.7323 316.645 52.7659 316.637 52.7904L311.732 51.3247C311.385 52.4861 311.483 53.7034 311.937 54.7334C312.387 55.7532 313.283 56.773 314.653 57.1561L316.032 52.2259ZM316.636 52.7939L323.073 31.3607L318.17 29.8881L311.733 51.3213L316.636 52.7939ZM323.074 31.3593C323.518 29.8776 323.233 28.3405 322.46 27.1931C321.686 26.0458 320.151 24.993 318.233 25.4324L319.376 30.4227C319.086 30.4892 318.79 30.4433 318.56 30.333C318.352 30.2333 318.252 30.1097 318.215 30.055C318.152 29.962 318.163 29.9139 318.17 29.8896L323.074 31.3593ZM318.236 25.4316C304.271 28.6117 292.73 33.8596 283.339 39.6707L286.032 44.0242C294.994 38.4793 306.013 33.4656 319.373 30.4234L318.236 25.4316ZM283.338 39.6712C283.521 39.5574 283.807 39.474 284.128 39.5181C284.425 39.5591 284.627 39.6913 284.733 39.7918C284.938 39.9839 284.898 40.1242 284.905 40.0762L279.851 39.2649C279.594 40.8647 280.104 42.4668 281.227 43.5222C282.413 44.6367 284.315 45.088 286.033 44.0237L283.338 39.6712ZM284.905 40.0761L289.246 13.0254L284.191 12.2143L279.851 39.265L284.905 40.0761ZM289.246 13.0263C289.489 11.5156 289.034 10.0114 288.063 8.96381C287.062 7.88543 285.338 7.19073 283.552 7.98149L285.625 12.6626C285.383 12.7695 285.083 12.7975 284.8 12.7231C284.541 12.6548 284.384 12.5258 284.309 12.4452C284.17 12.2956 284.194 12.2003 284.191 12.2134L289.246 13.0263ZM283.553 7.98116C257.494 19.5106 241.383 36.9337 232.384 49.6835L236.566 52.6358C245.182 40.4301 260.623 23.7246 285.624 12.6629L283.553 7.98116ZM232.384 49.6833C228.748 54.834 224.265 58.775 219.276 61.2136L221.524 65.8132C227.385 62.9487 232.501 58.3939 236.566 52.6359L232.384 49.6833ZM219.276 61.2136C166.383 87.0676 129.609 145.835 129.609 214.011H134.728C134.728 147.632 170.526 90.7409 221.524 65.8131L219.276 61.2136ZM129.609 214.011C129.609 236.63 133.655 258.206 140.994 277.887L145.791 276.098C138.665 256.988 134.728 236.018 134.728 214.011H129.609ZM140.994 277.887C144.624 287.621 145.777 298.522 145.262 309.446L150.375 309.687C150.913 298.28 149.727 286.651 145.791 276.098L140.994 277.887ZM145.262 309.445C145.182 311.122 145.142 312.807 145.142 314.501H150.262C150.262 312.887 150.3 311.283 150.375 309.688L145.262 309.445ZM145.142 314.501C145.142 342.482 155.694 368.189 173.295 388.605L177.172 385.262C160.304 365.696 150.262 341.154 150.262 314.501H145.142ZM177.412 385.589C170.93 375.093 167.321 363.46 167.321 351.218H162.202C162.202 364.499 166.124 377.054 173.056 388.279L177.412 385.589ZM167.321 351.218C167.321 337.6 171.785 324.727 179.714 313.343L175.513 310.417C167.055 322.56 162.202 336.439 162.202 351.218H167.321ZM179.937 310.805C172.066 293.787 167.321 272.273 167.321 248.799H162.202C162.202 272.931 167.075 295.191 175.291 312.954L179.937 310.805ZM167.321 248.799C167.321 220.893 174.006 195.754 184.68 177.679C195.388 159.546 209.814 148.94 225.243 148.94V143.82C207.268 143.82 191.453 156.141 180.272 175.076C169.056 194.068 162.202 220.139 162.202 248.799H167.321ZM225.243 148.94C246.163 148.94 265.277 168.571 275.54 199.45L280.398 197.836C269.931 166.341 249.602 143.82 225.243 143.82V148.94ZM280.398 199.45C290.664 168.571 309.778 148.94 330.696 148.94V143.82C306.339 143.82 286.01 166.341 275.54 197.835L280.398 199.45ZM330.696 148.94C346.125 148.94 360.551 159.546 371.259 177.68C381.933 195.756 388.617 220.895 388.617 248.799H393.737C393.737 220.14 386.883 194.07 375.667 175.077C364.485 156.141 348.67 143.82 330.696 143.82V148.94ZM388.617 248.799C388.617 272.273 383.872 293.787 376.002 310.805L380.648 312.954C388.864 295.191 393.737 272.932 393.737 248.799H388.617ZM376.224 313.342C384.154 324.73 388.617 337.6 388.617 351.218H393.737C393.737 336.439 388.883 322.563 380.426 310.417L376.224 313.342ZM388.617 351.218C388.617 363.457 385.006 375.09 378.527 385.589L382.883 388.278C389.812 377.051 393.737 364.497 393.737 351.218H388.617ZM382.644 388.605C400.244 368.192 410.796 342.482 410.796 314.501H405.677C405.677 341.154 395.634 365.699 378.766 385.262L382.644 388.605ZM410.796 314.501C410.796 313.524 410.784 312.548 410.757 311.572L405.639 311.716C405.665 312.639 405.677 313.567 405.677 314.501H410.796ZM410.757 311.572C410.47 301.404 412.634 291.384 416.341 282.201L411.594 280.285C407.668 290.011 405.329 300.732 405.639 311.716L410.757 311.572ZM416.342 282.201C424.745 261.376 429.433 238.302 429.433 214.011H424.314C424.314 237.641 419.753 260.065 411.594 280.285L416.342 282.201ZM385.266 697.861C380.884 699.924 375.255 702.026 369.859 702.514C364.494 702.998 359.753 701.872 356.452 697.982L352.549 701.295C357.325 706.923 364.021 708.181 370.319 707.612C376.586 707.047 382.846 704.659 387.447 702.493L385.266 697.861ZM356.452 697.982C350.029 690.414 344.06 688.151 339.346 688.151C337.044 688.151 335.185 688.695 333.886 689.251C333.237 689.53 332.724 689.813 332.358 690.038C332.175 690.15 332.028 690.249 331.919 690.326C331.864 690.364 331.819 690.397 331.783 690.424C331.765 690.437 331.749 690.449 331.736 690.459C331.729 690.464 331.723 690.469 331.718 690.473C331.715 690.475 331.712 690.477 331.71 690.479C331.709 690.48 331.707 690.482 331.707 690.482C331.705 690.483 331.703 690.485 333.285 692.497C334.867 694.51 334.865 694.511 334.863 694.512C334.863 694.513 334.861 694.514 334.861 694.515C334.859 694.516 334.857 694.517 334.855 694.519C334.852 694.521 334.849 694.523 334.847 694.525C334.843 694.528 334.84 694.53 334.84 694.53C334.839 694.531 334.846 694.526 334.861 694.515C334.891 694.495 334.951 694.453 335.04 694.399C335.219 694.289 335.511 694.125 335.903 693.957C336.688 693.621 337.86 693.271 339.346 693.271C342.209 693.27 346.848 694.578 352.549 701.295L356.452 697.982ZM331.808 690.407L330.956 691.008L333.91 695.19L334.762 694.588L331.808 690.407ZM330.983 690.99C296.191 714.911 293.773 749.97 294.079 762.188L299.197 762.06C298.91 750.568 301.185 717.691 333.884 695.208L330.983 690.99ZM294.773 763.878C299.277 768.667 303.843 770.485 308.502 770.152C312.925 769.836 317.016 767.588 320.646 765.32C324.471 762.93 327.789 760.531 331.311 759C334.688 757.533 337.836 757.074 341.132 758.369L343.004 753.604C338.025 751.648 333.404 752.509 329.271 754.305C325.283 756.037 321.349 758.844 317.933 760.978C314.321 763.235 311.181 764.828 308.137 765.046C305.327 765.247 302.188 764.29 298.502 760.37L294.773 763.878ZM341.133 758.369C349.693 761.731 368.566 768.029 386.798 770.556C395.901 771.818 405.031 772.168 412.701 770.634C420.377 769.1 427.002 765.579 430.307 758.763L425.701 756.529C423.371 761.333 418.55 764.244 411.698 765.614C404.84 766.985 396.36 766.713 387.501 765.485C369.81 763.033 351.35 756.881 343.004 753.604L341.133 758.369ZM430.307 758.763C433.636 751.9 432.031 744.54 428.409 737.812C424.783 731.074 418.917 724.524 412.847 718.845C406.752 713.142 400.317 708.195 395.421 704.681C392.969 702.922 390.895 701.516 389.43 700.547C388.697 700.063 388.116 699.688 387.717 699.432C387.517 699.305 387.362 699.207 387.256 699.14C387.203 699.107 387.163 699.081 387.135 699.064C387.121 699.055 387.11 699.048 387.102 699.044C387.098 699.041 387.095 699.039 387.093 699.038C387.092 699.037 387.091 699.037 387.09 699.036C387.089 699.036 387.089 699.035 385.74 701.211C384.391 703.386 384.391 703.386 384.391 703.386C384.391 703.386 384.391 703.386 384.391 703.387C384.392 703.387 384.394 703.389 384.397 703.39C384.402 703.393 384.411 703.399 384.422 703.406C384.446 703.421 384.482 703.443 384.53 703.473C384.626 703.534 384.77 703.625 384.96 703.746C385.339 703.988 385.897 704.349 386.606 704.818C388.025 705.756 390.045 707.125 392.436 708.841C397.225 712.278 403.47 717.083 409.349 722.583C415.255 728.109 420.659 734.215 423.901 740.238C427.147 746.269 428.007 751.774 425.701 756.529L430.307 758.763ZM385.74 701.211C387.912 702.565 387.912 702.565 387.912 702.565C387.912 702.565 387.912 702.565 387.912 702.565C387.912 702.565 387.912 702.565 387.912 702.564C387.913 702.564 387.913 702.564 387.913 702.564C387.913 702.563 387.913 702.563 387.914 702.562C387.915 702.561 387.916 702.559 387.917 702.557C387.92 702.553 387.923 702.547 387.927 702.54C387.936 702.526 387.948 702.507 387.963 702.482C387.994 702.432 388.038 702.36 388.094 702.266C388.207 702.08 388.368 701.81 388.569 701.463L384.143 698.891C383.956 699.212 383.809 699.459 383.71 699.622C383.661 699.704 383.624 699.765 383.6 699.805C383.587 699.824 383.579 699.839 383.573 699.847C383.571 699.852 383.569 699.855 383.568 699.856C383.567 699.857 383.567 699.857 383.567 699.858C383.567 699.858 383.567 699.858 383.567 699.857C383.567 699.857 383.567 699.857 383.567 699.857C383.567 699.857 383.567 699.857 383.567 699.857C383.567 699.857 383.567 699.857 383.567 699.857C383.567 699.857 383.567 699.857 385.74 701.211ZM168.492 702.493C173.093 704.659 179.353 707.047 185.62 707.612C191.918 708.181 198.613 706.923 203.39 701.295L199.486 697.982C196.185 701.872 191.445 702.998 186.08 702.514C180.684 702.026 175.055 699.924 170.673 697.861L168.492 702.493ZM203.39 701.295C209.091 694.578 213.73 693.27 216.592 693.271C218.079 693.271 219.251 693.621 220.035 693.957C220.428 694.125 220.719 694.289 220.899 694.399C220.988 694.453 221.048 694.495 221.078 694.515C221.093 694.526 221.1 694.531 221.099 694.53C221.098 694.53 221.096 694.528 221.092 694.525C221.089 694.523 221.087 694.521 221.083 694.519C221.082 694.517 221.08 694.516 221.078 694.515C221.077 694.514 221.076 694.513 221.075 694.512C221.074 694.511 221.072 694.51 222.654 692.497C224.235 690.485 224.234 690.483 224.232 690.482C224.232 690.482 224.23 690.48 224.229 690.479C224.226 690.477 224.224 690.475 224.221 690.473C224.216 690.469 224.209 690.464 224.203 690.459C224.19 690.449 224.174 690.437 224.156 690.424C224.12 690.397 224.075 690.364 224.02 690.326C223.91 690.249 223.764 690.15 223.581 690.038C223.215 689.813 222.702 689.53 222.052 689.251C220.754 688.695 218.895 688.151 216.593 688.151C211.878 688.151 205.91 690.414 199.486 697.982L203.39 701.295ZM221.177 694.588L222.029 695.19L224.982 691.008L224.131 690.407L221.177 694.588ZM222.055 695.208C254.754 717.691 257.029 750.568 256.742 762.06L261.86 762.188C262.165 749.97 259.748 714.911 224.956 690.99L222.055 695.208ZM257.436 760.37C253.751 764.29 250.611 765.247 247.802 765.046C244.758 764.828 241.617 763.235 238.006 760.978C234.59 758.844 230.656 756.037 226.668 754.305C222.535 752.509 217.914 751.648 212.935 753.604L214.806 758.369C218.102 757.074 221.25 757.533 224.628 759C228.15 760.531 231.468 762.93 235.293 765.32C238.923 767.588 243.013 769.836 247.437 770.152C252.096 770.485 256.661 768.667 261.166 763.878L257.436 760.37ZM212.935 753.604C204.589 756.881 186.129 763.033 168.437 765.485C159.578 766.713 151.099 766.985 144.241 765.614C137.389 764.244 132.568 761.333 130.238 756.529L125.631 758.763C128.937 765.579 135.562 769.1 143.237 770.634C150.907 772.168 160.038 771.818 169.14 770.556C187.373 768.029 206.245 761.731 214.806 758.369L212.935 753.604ZM130.238 756.529C127.931 751.774 128.791 746.269 132.038 740.238C135.28 734.215 140.684 728.109 146.589 722.583C152.469 717.083 158.713 712.278 163.503 708.841C165.894 707.125 167.914 705.756 169.332 704.818C170.041 704.349 170.6 703.988 170.979 703.746C171.168 703.625 171.313 703.534 171.409 703.473C171.457 703.443 171.493 703.421 171.516 703.406C171.528 703.399 171.536 703.393 171.542 703.39C171.544 703.389 171.546 703.387 171.547 703.387C171.548 703.386 171.548 703.386 171.548 703.386C171.548 703.386 171.548 703.386 170.199 701.211C168.85 699.035 168.849 699.036 168.848 699.036C168.848 699.037 168.847 699.037 168.846 699.038C168.844 699.039 168.841 699.041 168.837 699.044C168.829 699.048 168.818 699.055 168.804 699.064C168.776 699.081 168.735 699.107 168.682 699.14C168.577 699.207 168.422 699.305 168.222 699.432C167.822 699.688 167.242 700.063 166.509 700.547C165.044 701.516 162.97 702.922 160.518 704.681C155.622 708.195 149.187 713.142 143.092 718.845C137.022 724.524 131.156 731.074 127.53 737.812C123.908 744.54 122.303 751.9 125.631 758.763L130.238 756.529ZM170.199 701.211C172.371 699.857 172.371 699.857 172.371 699.857C172.371 699.857 172.371 699.857 172.371 699.857C172.371 699.857 172.371 699.857 172.371 699.857C172.372 699.857 172.372 699.857 172.372 699.857C172.372 699.858 172.372 699.858 172.372 699.858C172.372 699.857 172.371 699.857 172.371 699.856C172.37 699.855 172.368 699.852 172.365 699.847C172.36 699.839 172.351 699.824 172.339 699.805C172.315 699.765 172.278 699.704 172.228 699.622C172.13 699.459 171.983 699.212 171.796 698.891L167.369 701.463C167.571 701.81 167.732 702.08 167.844 702.266C167.901 702.36 167.945 702.432 167.975 702.482C167.991 702.507 168.003 702.526 168.011 702.54C168.016 702.547 168.019 702.553 168.022 702.557C168.023 702.559 168.024 702.561 168.025 702.562C168.025 702.563 168.026 702.563 168.026 702.564C168.026 702.564 168.026 702.564 168.026 702.564C168.026 702.565 168.026 702.565 168.027 702.565C168.027 702.565 168.027 702.565 168.027 702.565C168.027 702.565 168.027 702.565 170.199 701.211ZM285.986 500.592H269.953V505.711H285.986V500.592ZM269.953 500.592C252.314 500.592 236.836 510.573 226.548 525.686C216.258 540.804 211.027 561.209 213.824 582.568L218.9 581.903C216.261 561.75 221.219 542.614 230.78 528.567C240.344 514.517 254.379 505.711 269.953 505.711V500.592ZM213.824 582.57C213.93 583.375 214.04 584.158 214.158 584.916L219.217 584.127C219.107 583.422 219.003 582.681 218.9 581.901L213.824 582.57ZM214.158 584.912C223.773 647.115 222.836 679.175 221.332 693.087L226.422 693.637C227.989 679.146 228.876 646.614 219.217 584.13L214.158 584.912ZM222.416 695.464C254.763 717.94 257.029 750.61 256.742 762.057L261.86 762.185C262.165 750.013 259.758 715.176 225.337 691.26L222.416 695.464ZM260.52 764.372L260.576 764.342L258.138 759.84L258.083 759.87L260.52 764.372ZM261.23 763.836C261.592 763.447 261.952 763.041 262.311 762.616L258.402 759.31C258.092 759.677 257.787 760.021 257.484 760.346L261.23 763.836ZM293.626 762.619C294.034 763.101 294.522 763.586 294.771 763.852L298.504 760.348C298.049 759.864 297.834 759.666 297.529 759.307L293.626 762.619ZM299.197 762.036C298.912 750.572 301.194 717.925 333.523 695.461L330.601 691.257C296.201 715.161 293.776 749.973 294.079 762.163L299.197 762.036ZM334.607 693.083C333.1 679.169 332.165 647.112 341.781 584.909L336.721 584.127C327.062 646.611 327.947 679.14 329.517 693.635L334.607 693.083ZM341.78 584.912C341.899 584.154 342.008 583.368 342.114 582.568L337.039 581.897C336.936 582.675 336.832 583.419 336.722 584.124L341.78 584.912ZM342.114 582.565C344.912 561.208 339.681 540.803 329.391 525.686C319.103 510.573 303.624 500.592 285.986 500.592V505.711C301.559 505.711 315.595 514.517 325.159 528.567C334.72 542.613 339.678 561.749 337.038 581.9L342.114 582.565ZM493.705 471.28C485.716 494.129 469.17 509.24 451.101 520.805L453.861 525.117C472.41 513.245 490.017 497.341 498.537 472.97L493.705 471.28ZM451.001 525.049C459.532 531.095 467.143 541.866 472.449 559.753L477.357 558.297C471.841 539.703 463.715 527.785 453.961 520.873L451.001 525.049ZM476.348 561.137C491.468 550.792 505.555 538.172 516.794 521.216L512.527 518.387C501.745 534.653 488.191 546.831 473.457 556.912L476.348 561.137ZM516.794 521.216C535.474 493.036 545.758 452.577 535.276 416.763L530.362 418.201C540.329 452.254 530.572 491.165 512.527 518.387L516.794 521.216ZM535.276 416.763C529.53 397.133 519.901 383.938 510.7 372.9C501.388 361.728 492.99 353.218 488.695 342.403L483.937 344.292C488.625 356.098 497.875 365.51 506.767 376.178C515.77 386.978 524.901 399.54 530.362 418.201L535.276 416.763ZM488.695 342.403C482.085 325.752 487.614 312.234 497.589 301.69C507.666 291.039 522.125 283.658 532.498 279.872L530.743 275.062C519.968 278.995 504.698 286.727 493.87 298.172C482.941 309.725 476.392 325.288 483.937 344.292L488.695 342.403ZM532.499 279.871C545.485 275.129 548.678 260.384 546.154 248.892C544.867 243.038 542.036 237.507 537.759 233.97C533.361 230.333 527.584 228.952 521.066 231.331L522.822 236.141C527.585 234.402 531.46 235.404 534.497 237.915C537.654 240.526 540.036 244.907 541.153 249.991C543.434 260.376 540.185 271.614 530.742 275.063L532.499 279.871ZM521.066 231.331C484.335 244.743 458.892 270.029 449.234 300.196C439.56 330.413 445.857 365.11 471.791 396.976L475.762 393.744C450.773 363.039 445.031 330.115 454.11 301.757C463.204 273.35 487.307 249.108 522.822 236.14L521.066 231.331ZM471.792 396.976C479.335 406.241 488.108 414.718 493.486 426.159C498.734 437.323 500.678 451.335 493.705 471.28L498.537 472.97C505.916 451.866 503.984 436.457 498.119 423.981C492.385 411.783 482.811 402.402 475.762 393.744L471.792 396.976ZM457.547 107.913C449.263 99.3849 438.459 96.4905 427.753 98.7317C417.113 100.959 406.739 108.206 398.898 119.631L403.119 122.528C410.363 111.972 419.689 105.65 428.802 103.743C437.85 101.849 446.854 104.253 453.874 111.48L457.547 107.913ZM398.83 122.423C412.784 145.051 421.695 171.852 423.791 200.829L428.898 200.46C426.743 170.667 417.578 143.07 403.187 119.736L398.83 122.423ZM426.68 203.182C438.46 201.624 450.15 193.901 458.671 181.052L454.404 178.223C446.523 190.106 436.031 196.781 426.009 198.107L426.68 203.182ZM458.671 181.052C466.485 169.267 470.287 155.262 470.132 142.114C469.976 128.989 465.865 116.478 457.547 107.913L453.874 111.48C461.048 118.867 464.868 129.987 465.012 142.175C465.156 154.34 461.626 167.33 454.404 178.223L458.671 181.052ZM158.71 122.224C158.483 121.855 158.011 121.024 157.637 120.459L153.368 123.285C153.727 123.826 153.886 124.156 154.353 124.912L158.71 122.224ZM157.636 120.457C149.825 108.677 139.357 101.171 128.587 98.799C117.751 96.4119 106.779 99.2778 98.3921 107.913L102.065 111.48C109.17 104.163 118.317 101.779 127.486 103.799C136.721 105.833 146.145 112.391 153.369 123.286L157.636 120.457ZM98.3921 107.913C90.0741 116.478 85.963 128.989 85.808 142.114C85.6526 155.261 89.4551 169.265 97.2675 181.049L101.535 178.22C94.3134 167.328 90.7835 154.339 90.9272 142.174C91.0712 129.987 94.8906 118.867 102.065 111.48L98.3921 107.913ZM97.2676 181.049C106.591 195.11 119.719 203.041 132.599 203.442L132.758 198.325C121.908 197.987 110.166 191.238 101.534 178.22L97.2676 181.049ZM135.232 201.065C137.222 173.036 145.59 147.035 158.733 124.874L154.33 122.262C140.778 145.113 132.172 171.884 130.125 200.702L135.232 201.065ZM211.131 358.746C226.41 372.121 250.754 380.623 277.969 380.623V375.503C251.704 375.503 228.651 367.279 214.504 354.894L211.131 358.746ZM277.969 380.623C305.185 380.623 329.529 372.121 344.807 358.746L341.435 354.894C327.287 367.279 304.235 375.503 277.969 375.503V380.623ZM295.39 302.057C295.39 305.372 293.324 307.055 291.884 307.055V312.175C297.145 312.175 300.51 307.09 300.51 302.057H295.39ZM291.884 307.055C290.445 307.055 288.378 305.372 288.378 302.057H283.259C283.259 307.09 286.624 312.175 291.884 312.175V307.055ZM288.378 302.057C288.378 298.741 290.445 297.058 291.884 297.058V291.938C286.624 291.938 283.259 297.023 283.259 302.057H288.378ZM291.884 297.058C293.324 297.058 295.39 298.741 295.39 302.057H300.51C300.51 297.023 297.145 291.938 291.884 291.938V297.058ZM267.56 302.057C267.56 305.372 265.494 307.055 264.054 307.055V312.175C269.315 312.175 272.68 307.09 272.68 302.057H267.56ZM264.054 307.055C262.615 307.055 260.548 305.372 260.548 302.057H255.429C255.429 307.09 258.794 312.175 264.054 312.175V307.055ZM260.548 302.057C260.548 298.741 262.615 297.058 264.054 297.058V291.938C258.794 291.938 255.429 297.023 255.429 302.057H260.548ZM264.054 297.058C265.494 297.058 267.56 298.741 267.56 302.057H272.68C272.68 297.023 269.315 291.938 264.054 291.938V297.058ZM210.568 270.01C210.546 261.863 215.745 256.237 221.065 256.217L221.045 251.098C211.909 251.132 205.422 260.158 205.449 270.024L210.568 270.01ZM221.066 256.217C226.38 256.195 231.604 261.773 231.624 269.921L236.744 269.908C236.72 260.042 230.186 251.059 221.044 251.098L221.066 256.217ZM324.315 270.01C324.293 261.863 329.492 256.237 334.811 256.217L334.792 251.098C325.655 251.132 319.169 260.158 319.195 270.024L324.315 270.01ZM334.812 256.217C340.126 256.195 345.351 261.773 345.37 269.921L350.49 269.908C350.466 260.042 343.933 251.059 334.791 251.098L334.812 256.217ZM280.529 376.04V339.759H275.41V376.04H280.529ZM505.178 586.545L492.915 607.555L497.337 610.135L509.6 589.125L505.178 586.545ZM511.281 631.67L527.305 614.207L523.533 610.745L507.509 628.209L511.281 631.67ZM536.046 640.658L520.707 652.193L523.784 656.285L539.123 644.75L536.046 640.658ZM62.5939 607.554L50.4647 586.774L46.0432 589.355L58.1724 610.135L62.5939 607.554ZM28.4809 614.509L44.2278 631.67L48 628.209L32.2531 611.048L28.4809 614.509ZM34.8026 652.193L19.8152 640.922L16.738 645.013L31.7255 656.284L34.8026 652.193Z" fill="#8E959E"/>
</g>
<rect x="1.03613" y="0.5" width="555.63" height="774" stroke="white"/>
<defs>
<clipPath id="clip0_6557_1282">
<rect x="1.03613" y="0.5" width="555.63" height="774" fill="white"/>
</clipPath>
</defs>
</svg>
