<svg width="37" height="40" viewBox="0 0 37 40" fill="none" xmlns="http://www.w3.org/2000/svg">
<path d="M18.4999 12.3046C19.7167 12.3046 20.9062 11.9438 21.918 11.2678C22.9297 10.5918 23.7183 9.6309 24.1839 8.50671C24.6496 7.38252 24.7714 6.1455 24.534 4.95206C24.2966 3.75863 23.7107 2.66239 22.8503 1.80198C21.9899 0.941558 20.8936 0.355607 19.7002 0.118218C18.5068 -0.119171 17.2697 0.00266568 16.1455 0.46832C15.0213 0.933975 14.0605 1.72253 13.3845 2.73428C12.7084 3.74602 12.3476 4.93551 12.3476 6.15232C12.3476 7.78402 12.9958 9.34889 14.1496 10.5027C15.3034 11.6565 16.8682 12.3046 18.4999 12.3046ZM18.4999 3.07616C19.1083 3.07616 19.7031 3.25658 20.209 3.59459C20.7148 3.9326 21.1091 4.41303 21.3419 4.97513C21.5748 5.53722 21.6357 6.15574 21.517 6.75245C21.3983 7.34917 21.1053 7.89729 20.6751 8.3275C20.2449 8.75771 19.6968 9.05068 19.1001 9.16938C18.5033 9.28807 17.8848 9.22715 17.3227 8.99433C16.7606 8.7615 16.2802 8.36722 15.9422 7.86135C15.6042 7.35547 15.4238 6.76073 15.4238 6.15232C15.4238 5.33647 15.7479 4.55404 16.3248 3.97715C16.9016 3.40026 17.6841 3.07616 18.4999 3.07616ZM36.9569 16.9189C36.9569 17.3268 36.7948 17.718 36.5064 18.0065C36.218 18.2949 35.8267 18.457 35.4188 18.457H20.038V23.5942L29.8721 27.8104C30.1487 27.9289 30.3845 28.1259 30.5503 28.3771C30.716 28.6283 30.8044 28.9226 30.8046 29.2235V38.452C30.8046 38.8599 30.6425 39.2511 30.3541 39.5396C30.0656 39.828 29.6744 39.9901 29.2665 39.9901C28.8586 39.9901 28.4673 39.828 28.1789 39.5396C27.8905 39.2511 27.7284 38.8599 27.7284 38.452V30.2387L18.7979 26.4108L4.14772 39.6056C3.84433 39.8784 3.44499 40.0195 3.03756 39.9978C2.63013 39.9762 2.24798 39.7936 1.97518 39.4902C1.70238 39.1868 1.56128 38.7875 1.58291 38.38C1.60455 37.9726 1.78714 37.5905 2.09054 37.3177L16.9618 23.9248V18.457H1.58105C1.17312 18.457 0.781908 18.2949 0.493462 18.0065C0.205016 17.718 0.0429688 17.3268 0.0429688 16.9189C0.0429688 16.511 0.205016 16.1197 0.493462 15.8313C0.781908 15.5429 1.17312 15.3808 1.58105 15.3808H35.4188C35.8267 15.3808 36.218 15.5429 36.5064 15.8313C36.7948 16.1197 36.9569 16.511 36.9569 16.9189Z" fill="#A6A6A6"/>
</svg>
