<svg width="48" height="37" viewBox="0 0 48 37" fill="none" xmlns="http://www.w3.org/2000/svg">
<path d="M14.819 7.40885C12.8496 7.40885 11.2708 5.83008 11.2708 3.87695C11.2708 1.90755 12.8496 0.328774 14.819 0.328774C16.7884 0.328774 18.3672 1.90755 18.3672 3.87695C18.3672 5.83008 16.7884 7.40885 14.819 7.40885ZM33.1133 7.40885C31.1439 7.40885 29.5651 5.83008 29.5651 3.87695C29.5651 1.90755 31.1439 0.328774 33.1133 0.328774C35.0664 0.328774 36.6452 1.90755 36.6452 3.87695C36.6452 5.83008 35.0664 7.40885 33.1133 7.40885ZM14.8027 22.6921C14.1354 22.6921 13.8913 23.1478 13.5007 24.3197C12.9635 25.9635 11.3034 32.7832 10.7663 34.7852C10.4896 35.7943 9.95247 36.2174 9.1875 36.2174C8.16211 36.2174 7.51107 35.2734 7.80404 34.248C7.91797 33.8086 10.278 23.9453 10.6035 21.9108C10.9453 19.8275 10.9941 15.2865 10.9779 13.8867C10.9453 12.9102 10.4733 12.2591 9.69206 12.1126C8.92708 11.9661 2.74219 11.1849 1.84701 10.9896C1.14714 10.8431 0.691407 10.2083 0.691407 9.45963C0.691407 8.51562 1.35872 7.94596 2.07487 7.94596C2.31901 7.94596 2.61198 8.01107 2.8724 8.07617C5.41146 8.56445 10.9453 9.0039 14.8027 9.11784C18.1882 9.21549 21.8014 9.29687 24.0475 9.29687C26.2611 9.29687 29.793 9.21549 33.1133 9.11784C37.0195 8.97135 42.5046 8.5319 45.0273 8.07617C45.3366 8.01107 45.597 7.94596 45.8737 7.94596C46.5247 7.94596 47.2572 8.51562 47.2572 9.45963C47.2572 10.2083 46.7689 10.778 46.0853 10.9896C45.2227 11.2663 39.0052 11.9336 38.2402 12.1126C37.4264 12.2917 37.0033 12.9102 37.0033 13.8867C36.987 15.2865 36.987 19.8275 37.2962 21.9108C37.6217 23.9453 39.9981 33.8086 40.112 34.248C40.3887 35.2734 39.7702 36.2174 38.7285 36.2174C37.9798 36.2174 37.4264 35.7943 37.1823 34.7852C36.694 32.7669 34.9525 25.931 34.4642 24.3197C34.1061 23.1152 33.7969 22.6921 33.1133 22.6921C32.446 22.6921 32.1855 23.1478 31.7949 24.3197C31.2741 25.9635 29.5977 32.7832 29.0605 34.7852C28.7839 35.7943 28.263 36.2174 27.498 36.2174C26.4727 36.2174 25.8216 35.2734 26.0983 34.248C26.2285 33.8086 28.5885 23.9453 28.9141 21.9108C29.2559 19.8275 29.3047 15.2865 29.2721 13.9844C29.2559 12.8613 28.7513 12.3242 27.7585 12.1615C26.7982 11.9987 25.3659 11.9336 23.9824 11.9336C22.6478 11.9173 21.1504 11.9987 20.2064 12.1615C19.2135 12.3242 18.709 12.8613 18.6764 13.9844C18.6602 15.2865 18.6927 19.8275 19.002 21.9108C19.3112 23.9453 21.7038 33.8086 21.8014 34.248C22.0781 35.2734 21.4596 36.2174 20.418 36.2174C19.653 36.2174 19.1159 35.7943 18.8717 34.7852C18.3835 32.7669 16.6582 25.931 16.1536 24.3197C15.7956 23.1152 15.5026 22.6921 14.8027 22.6921Z" fill="#A6A6A6"/>
</svg>
