<svg width="19" height="44" viewBox="0 0 19 44" fill="none" xmlns="http://www.w3.org/2000/svg">
<path d="M3.89351 4.86586C2.89303 5.11063 2.85106 6.19656 2.83993 7.86407C1.50244 8.67226 1.41968 9.32857 2.15652 10.7685C1.04416 13.217 0.312164 14.6782 2.15652 14.7266C1.11563 16.4229 1.53371 17.08 2.83993 18.0866C2.75455 20.0373 3.27477 20.608 4.94708 20.9341C4.61014 22.0596 4.72106 22.5889 5.80133 23.2406C2.83762 23.5191 2.04542 25.6455 5.34573 26.9424C1.7549 26.3851 1.2727 29.3801 4.60538 29.7044C1.08643 29.8567 1.71186 33.109 4.20673 32.8936C1.21152 33.4008 2.1705 35.9442 4.94708 35.8266C2.75423 35.8191 2.65381 37.3818 4.94708 37.9337C4.757 40.014 5.1899 41.1789 5.74438 41.5884M3.89351 4.86586C4.24548 4.77974 4.71609 4.79774 5.34573 4.93115C5.28702 4.57878 5.35189 4.19956 5.4915 3.84908M3.89351 4.86586C2.78247 2.76315 2.30281 1.67873 3.01078 0.77378C3.75113 0.00494026 3.89351 2.59614 5.4915 3.84908M5.4915 3.84908C5.99074 2.59584 7.44572 1.71023 7.62374 3.73517C9.06451 1.48577 10.4062 0.65224 10.9553 4.07693C11.9819 2.57656 13.0711 2.17269 13.4664 3.10872M13.4664 3.10872C13.6413 3.52283 13.6804 4.19921 13.5181 5.15893C14.1925 4.95729 14.7038 4.86709 15.0622 4.93115M13.4664 3.10872C14.2608 1.43997 14.7051 0.623374 15.4828 0.659866C17.0205 0.732009 14.8293 3.48399 15.0622 4.93115M15.0622 4.93115C15.827 5.06782 15.8958 5.90679 15.3689 7.86407C17.652 8.36921 17.9878 9.37132 16.6788 11.1956C18.275 12.2156 18.2811 13.0409 16.9066 14.8974C17.7627 17.0877 17.2869 17.7262 15.6822 18.3998C15.8271 20.2409 15.2704 20.6629 13.7743 20.9341C14.0533 22.116 13.8181 22.6948 12.8062 23.6108C14.9147 23.3622 15.847 25.46 13.2618 25.8033C15.6722 25.7514 17.4786 29.4807 14.3438 30.0461C16.7211 30.5879 16.0801 32.977 14.6001 33.2638C16.3132 33.7345 15.847 35.7158 13.6889 35.7696C15.3382 36.4635 15.0689 38.5796 13.2618 38.788C13.5836 40.4581 13.3465 41.453 12.9268 41.8513M5.74438 41.5884C6.01961 41.7917 6.3248 41.809 6.59863 41.6597M5.74438 41.5884C5.6008 43.0542 6.59863 43.4009 6.59863 41.6597M6.59863 41.6597C7.26072 41.2988 7.73946 39.9645 7.16813 37.9337C8.73577 38.402 9.22833 38.217 9.36071 37.0225C9.53732 38.479 10.0096 38.5271 11.1831 37.9337C10.7978 40.0036 11.2994 41.3626 11.9235 41.8513M11.9235 41.8513C12.2626 42.1169 12.6379 42.1254 12.9268 41.8513M11.9235 41.8513C11.851 43.6456 12.8347 43.828 12.9268 41.8513M4.94708 13.2458C6.15533 13.8448 7.33899 13.3597 7.76611 11.9929C8.2259 12.9513 9.27529 12.8187 9.81631 11.7367C9.96248 13.102 10.9268 13.4452 11.7526 11.9929C11.9301 14.3394 13.034 13.7299 14.0876 13.018C16.774 16.0239 16.0749 17.6115 10.8129 20.0514C9.74542 20.3367 9.10456 20.2595 7.90849 19.8236C4.19313 18.1692 1.71126 17.3842 4.94708 13.2458ZM6.17151 14.8974C6.85491 14.9828 6.99728 15.9794 6.17151 16.0364C5.31726 15.951 5.40268 14.9543 6.17151 14.8974ZM12.5784 14.8974C13.4326 14.9828 13.4326 16.0364 12.5784 16.1218C11.7811 16.0364 11.8096 14.8974 12.5784 14.8974Z" stroke="#A6A6A6"/>
</svg>
