<svg width="50" height="40" viewBox="0 0 50 40" fill="none" xmlns="http://www.w3.org/2000/svg">
<path d="M47.409 10.7843C46.7288 10.4509 45.9578 10.351 45.2151 10.4999C44.4724 10.6488 43.7995 11.0384 43.3005 11.6082L35.9814 19.4969L28.1992 2.04353C28.1989 2.03629 28.1989 2.02904 28.1992 2.0218C27.921 1.41824 27.4756 0.907047 26.9158 0.548736C26.356 0.190426 25.7053 0 25.0407 0C24.3761 0 23.7254 0.190426 23.1656 0.548736C22.6059 0.907047 22.1605 1.41824 21.8822 2.0218C21.8826 2.02904 21.8826 2.03629 21.8822 2.04353L14.1001 19.4969L6.78093 11.6082C6.27871 11.0382 5.6037 10.6484 4.85906 10.4982C4.11441 10.348 3.34106 10.4458 2.65719 10.7765C1.97332 11.1072 1.41653 11.6527 1.0719 12.3297C0.727262 13.0067 0.613739 13.7778 0.748672 14.5254C0.748672 14.5493 0.748672 14.5711 0.763888 14.595L5.69403 37.1741C5.8458 37.9692 6.27012 38.6864 6.89389 39.2022C7.51765 39.7181 8.3018 40.0002 9.11122 40H40.9724C41.7814 39.9997 42.5651 39.7173 43.1884 39.2015C43.8117 38.6857 44.2357 37.9688 44.3874 37.1741L49.3176 14.595C49.3176 14.5711 49.3176 14.5493 49.3328 14.5254C49.4703 13.7769 49.3561 13.004 49.0081 12.3272C48.6601 11.6504 48.0978 11.1079 47.409 10.7843ZM40.9854 36.4524L40.9724 36.5219H9.10905L9.09601 36.4524L4.17238 13.9146L4.20282 13.9494L13.3327 23.7836C13.5282 23.9948 13.7731 24.1542 14.0454 24.2475C14.3177 24.3408 14.6089 24.3651 14.8928 24.3181C15.1768 24.2711 15.4447 24.1544 15.6724 23.9784C15.9002 23.8024 16.0807 23.5726 16.1978 23.3097L25.0407 3.48041L33.8859 23.3162C34.0029 23.5791 34.1834 23.8089 34.4112 23.9849C34.6389 24.1609 34.9068 24.2777 35.1908 24.3246C35.4748 24.3716 35.7659 24.3474 36.0382 24.2541C36.3105 24.1608 36.5554 24.0013 36.7509 23.7901L45.8808 13.9559L45.9091 13.9146L40.9854 36.4524Z" fill="#A6A6A6"/>
</svg>
